0
SECTION
2
HEADER
9
$EXTMIN
10
0.03515625
20
-0.0205078125
30
0.5
9
$EXTMAX
10
2.5634765625
20
1.07421875
30
0.5
0
ENDSEC
0
SECTION
2
TABLES
0
TABLE
2
VPORT
0
VPORT
2
*ACTIVE
41
  1.000000
0
ENDTAB
0
TABLE
2
LAYER
0
LAYER
2
0
62
0
0
ENDTAB
0
ENDSEC
0
SECTION
2
BLOCKS
0
ENDSEC
0
SECTION
2
ENTITIES
0
LINE
8
0
62
0
10
0.270508
20
0.695313
30
0.500000
11
0.035156
21
0.695313
31
0.500000
0
LINE
8
0
62
0
10
0.035156
20
0.695313
30
0.500000
11
0.035156
21
0.733398
31
0.500000
0
LINE
8
0
62
0
10
0.035156
20
0.733398
30
0.500000
11
0.035156
21
0.754883
31
0.500000
0
LINE
8
0
62
0
10
0.035156
20
0.754883
30
0.500000
11
0.036133
21
0.775391
31
0.500000
0
LINE
8
0
62
0
10
0.036133
20
0.775391
30
0.500000
11
0.036133
21
0.794922
31
0.500000
0
LINE
8
0
62
0
10
0.036133
20
0.794922
30
0.500000
11
0.037109
21
0.812500
31
0.500000
0
LINE
8
0
62
0
10
0.037109
20
0.812500
30
0.500000
11
0.039063
21
0.830078
31
0.500000
0
LINE
8
0
62
0
10
0.039063
20
0.830078
30
0.500000
11
0.040039
21
0.845703
31
0.500000
0
LINE
8
0
62
0
10
0.040039
20
0.845703
30
0.500000
11
0.041992
21
0.860352
31
0.500000
0
LINE
8
0
62
0
10
0.041992
20
0.860352
30
0.500000
11
0.043945
21
0.873047
31
0.500000
0
LINE
8
0
62
0
10
0.043945
20
0.873047
30
0.500000
11
0.046875
21
0.885742
31
0.500000
0
LINE
8
0
62
0
10
0.046875
20
0.885742
30
0.500000
11
0.050781
21
0.898438
31
0.500000
0
LINE
8
0
62
0
10
0.050781
20
0.898438
30
0.500000
11
0.054688
21
0.911133
31
0.500000
0
LINE
8
0
62
0
10
0.054688
20
0.911133
30
0.500000
11
0.059570
21
0.923828
31
0.500000
0
LINE
8
0
62
0
10
0.059570
20
0.923828
30
0.500000
11
0.066406
21
0.936523
31
0.500000
0
LINE
8
0
62
0
10
0.066406
20
0.936523
30
0.500000
11
0.073242
21
0.949219
31
0.500000
0
LINE
8
0
62
0
10
0.073242
20
0.949219
30
0.500000
11
0.081055
21
0.961914
31
0.500000
0
LINE
8
0
62
0
10
0.081055
20
0.961914
30
0.500000
11
0.088867
21
0.973633
31
0.500000
0
LINE
8
0
62
0
10
0.088867
20
0.973633
30
0.500000
11
0.098633
21
0.986328
31
0.500000
0
LINE
8
0
62
0
10
0.098633
20
0.986328
30
0.500000
11
0.108398
21
0.997070
31
0.500000
0
LINE
8
0
62
0
10
0.108398
20
0.997070
30
0.500000
11
0.119141
21
1.007813
31
0.500000
0
LINE
8
0
62
0
10
0.119141
20
1.007813
30
0.500000
11
0.129883
21
1.017578
31
0.500000
0
LINE
8
0
62
0
10
0.129883
20
1.017578
30
0.500000
11
0.142578
21
1.026367
31
0.500000
0
LINE
8
0
62
0
10
0.142578
20
1.026367
30
0.500000
11
0.155273
21
1.034180
31
0.500000
0
LINE
8
0
62
0
10
0.155273
20
1.034180
30
0.500000
11
0.167969
21
1.041992
31
0.500000
0
LINE
8
0
62
0
10
0.167969
20
1.041992
30
0.500000
11
0.182617
21
1.048828
31
0.500000
0
LINE
8
0
62
0
10
0.182617
20
1.048828
30
0.500000
11
0.197266
21
1.054688
31
0.500000
0
LINE
8
0
62
0
10
0.197266
20
1.054688
30
0.500000
11
0.211914
21
1.059570
31
0.500000
0
LINE
8
0
62
0
10
0.211914
20
1.059570
30
0.500000
11
0.228516
21
1.064453
31
0.500000
0
LINE
8
0
62
0
10
0.228516
20
1.064453
30
0.500000
11
0.245117
21
1.068359
31
0.500000
0
LINE
8
0
62
0
10
0.245117
20
1.068359
30
0.500000
11
0.262695
21
1.070313
31
0.500000
0
LINE
8
0
62
0
10
0.262695
20
1.070313
30
0.500000
11
0.281250
21
1.072266
31
0.500000
0
LINE
8
0
62
0
10
0.281250
20
1.072266
30
0.500000
11
0.299805
21
1.074219
31
0.500000
0
LINE
8
0
62
0
10
0.299805
20
1.074219
30
0.500000
11
0.319336
21
1.074219
31
0.500000
0
LINE
8
0
62
0
10
0.319336
20
1.074219
30
0.500000
11
0.357422
21
1.073242
31
0.500000
0
LINE
8
0
62
0
10
0.357422
20
1.073242
30
0.500000
11
0.392578
21
1.069336
31
0.500000
0
LINE
8
0
62
0
10
0.392578
20
1.069336
30
0.500000
11
0.425781
21
1.063477
31
0.500000
0
LINE
8
0
62
0
10
0.425781
20
1.063477
30
0.500000
11
0.457031
21
1.054688
31
0.500000
0
LINE
8
0
62
0
10
0.457031
20
1.054688
30
0.500000
11
0.485352
21
1.043945
31
0.500000
0
LINE
8
0
62
0
10
0.485352
20
1.043945
30
0.500000
11
0.511719
21
1.030273
31
0.500000
0
LINE
8
0
62
0
10
0.511719
20
1.030273
30
0.500000
11
0.535156
21
1.014648
31
0.500000
0
LINE
8
0
62
0
10
0.535156
20
1.014648
30
0.500000
11
0.556641
21
0.996094
31
0.500000
0
LINE
8
0
62
0
10
0.556641
20
0.996094
30
0.500000
11
0.575195
21
0.976563
31
0.500000
0
LINE
8
0
62
0
10
0.575195
20
0.976563
30
0.500000
11
0.591797
21
0.955078
31
0.500000
0
LINE
8
0
62
0
10
0.591797
20
0.955078
30
0.500000
11
0.605469
21
0.932617
31
0.500000
0
LINE
8
0
62
0
10
0.605469
20
0.932617
30
0.500000
11
0.616211
21
0.908203
31
0.500000
0
LINE
8
0
62
0
10
0.616211
20
0.908203
30
0.500000
11
0.625000
21
0.882813
31
0.500000
0
LINE
8
0
62
0
10
0.625000
20
0.882813
30
0.500000
11
0.631836
21
0.856445
31
0.500000
0
LINE
8
0
62
0
10
0.631836
20
0.856445
30
0.500000
11
0.635742
21
0.829102
31
0.500000
0
LINE
8
0
62
0
10
0.635742
20
0.829102
30
0.500000
11
0.636719
21
0.799805
31
0.500000
0
LINE
8
0
62
0
10
0.636719
20
0.799805
30
0.500000
11
0.635742
21
0.776367
31
0.500000
0
LINE
8
0
62
0
10
0.635742
20
0.776367
30
0.500000
11
0.633789
21
0.753906
31
0.500000
0
LINE
8
0
62
0
10
0.633789
20
0.753906
30
0.500000
11
0.629883
21
0.730469
31
0.500000
0
LINE
8
0
62
0
10
0.629883
20
0.730469
30
0.500000
11
0.625000
21
0.706055
31
0.500000
0
LINE
8
0
62
0
10
0.625000
20
0.706055
30
0.500000
11
0.619141
21
0.682617
31
0.500000
0
LINE
8
0
62
0
10
0.619141
20
0.682617
30
0.500000
11
0.611328
21
0.658203
31
0.500000
0
LINE
8
0
62
0
10
0.611328
20
0.658203
30
0.500000
11
0.602539
21
0.632813
31
0.500000
0
LINE
8
0
62
0
10
0.602539
20
0.632813
30
0.500000
11
0.591797
21
0.608398
31
0.500000
0
LINE
8
0
62
0
10
0.591797
20
0.608398
30
0.500000
11
0.577148
21
0.579102
31
0.500000
0
LINE
8
0
62
0
10
0.577148
20
0.579102
30
0.500000
11
0.557617
21
0.542969
31
0.500000
0
LINE
8
0
62
0
10
0.557617
20
0.542969
30
0.500000
11
0.533203
21
0.500977
31
0.500000
0
LINE
8
0
62
0
10
0.533203
20
0.500977
30
0.500000
11
0.501953
21
0.450195
31
0.500000
0
LINE
8
0
62
0
10
0.501953
20
0.450195
30
0.500000
11
0.465820
21
0.393555
31
0.500000
0
LINE
8
0
62
0
10
0.465820
20
0.393555
30
0.500000
11
0.424805
21
0.329102
31
0.500000
0
LINE
8
0
62
0
10
0.424805
20
0.329102
30
0.500000
11
0.377930
21
0.257813
31
0.500000
0
LINE
8
0
62
0
10
0.377930
20
0.257813
30
0.500000
11
0.325195
21
0.179688
31
0.500000
0
LINE
8
0
62
0
10
0.325195
20
0.179688
30
0.500000
11
0.613281
21
0.179688
31
0.500000
0
LINE
8
0
62
0
10
0.613281
20
0.179688
30
0.500000
11
0.613281
21
0.000000
31
0.500000
0
LINE
8
0
62
0
10
0.613281
20
0.000000
30
0.500000
11
0.035156
21
0.000000
31
0.500000
0
LINE
8
0
62
0
10
0.035156
20
0.000000
30
0.500000
11
0.035156
21
0.150391
31
0.500000
0
LINE
8
0
62
0
10
0.035156
20
0.150391
30
0.500000
11
0.096680
21
0.250977
31
0.500000
0
LINE
8
0
62
0
10
0.096680
20
0.250977
30
0.500000
11
0.150391
21
0.340820
31
0.500000
0
LINE
8
0
62
0
10
0.150391
20
0.340820
30
0.500000
11
0.198242
21
0.420898
31
0.500000
0
LINE
8
0
62
0
10
0.198242
20
0.420898
30
0.500000
11
0.240234
21
0.491211
31
0.500000
0
LINE
8
0
62
0
10
0.240234
20
0.491211
30
0.500000
11
0.274414
21
0.550781
31
0.500000
0
LINE
8
0
62
0
10
0.274414
20
0.550781
30
0.500000
11
0.303711
21
0.600586
31
0.500000
0
LINE
8
0
62
0
10
0.303711
20
0.600586
30
0.500000
11
0.325195
21
0.640625
31
0.500000
0
LINE
8
0
62
0
10
0.325195
20
0.640625
30
0.500000
11
0.340820
21
0.670898
31
0.500000
0
LINE
8
0
62
0
10
0.340820
20
0.670898
30
0.500000
11
0.351563
21
0.695313
31
0.500000
0
LINE
8
0
62
0
10
0.351563
20
0.695313
30
0.500000
11
0.361328
21
0.717773
31
0.500000
0
LINE
8
0
62
0
10
0.361328
20
0.717773
30
0.500000
11
0.370117
21
0.739258
31
0.500000
0
LINE
8
0
62
0
10
0.370117
20
0.739258
30
0.500000
11
0.376953
21
0.759766
31
0.500000
0
LINE
8
0
62
0
10
0.376953
20
0.759766
30
0.500000
11
0.381836
21
0.778320
31
0.500000
0
LINE
8
0
62
0
10
0.381836
20
0.778320
30
0.500000
11
0.385742
21
0.795898
31
0.500000
0
LINE
8
0
62
0
10
0.385742
20
0.795898
30
0.500000
11
0.387695
21
0.812500
31
0.500000
0
LINE
8
0
62
0
10
0.387695
20
0.812500
30
0.500000
11
0.388672
21
0.827148
31
0.500000
0
LINE
8
0
62
0
10
0.388672
20
0.827148
30
0.500000
11
0.388672
21
0.836914
31
0.500000
0
LINE
8
0
62
0
10
0.388672
20
0.836914
30
0.500000
11
0.387695
21
0.846680
31
0.500000
0
LINE
8
0
62
0
10
0.387695
20
0.846680
30
0.500000
11
0.386719
21
0.856445
31
0.500000
0
LINE
8
0
62
0
10
0.386719
20
0.856445
30
0.500000
11
0.385742
21
0.864258
31
0.500000
0
LINE
8
0
62
0
10
0.385742
20
0.864258
30
0.500000
11
0.382813
21
0.872070
31
0.500000
0
LINE
8
0
62
0
10
0.382813
20
0.872070
30
0.500000
11
0.380859
21
0.878906
31
0.500000
0
LINE
8
0
62
0
10
0.380859
20
0.878906
30
0.500000
11
0.377930
21
0.885742
31
0.500000
0
LINE
8
0
62
0
10
0.377930
20
0.885742
30
0.500000
11
0.374023
21
0.890625
31
0.500000
0
LINE
8
0
62
0
10
0.374023
20
0.890625
30
0.500000
11
0.370117
21
0.895508
31
0.500000
0
LINE
8
0
62
0
10
0.370117
20
0.895508
30
0.500000
11
0.366211
21
0.900391
31
0.500000
0
LINE
8
0
62
0
10
0.366211
20
0.900391
30
0.500000
11
0.361328
21
0.904297
31
0.500000
0
LINE
8
0
62
0
10
0.361328
20
0.904297
30
0.500000
11
0.355469
21
0.907227
31
0.500000
0
LINE
8
0
62
0
10
0.355469
20
0.907227
30
0.500000
11
0.349609
21
0.909180
31
0.500000
0
LINE
8
0
62
0
10
0.349609
20
0.909180
30
0.500000
11
0.343750
21
0.911133
31
0.500000
0
LINE
8
0
62
0
10
0.343750
20
0.911133
30
0.500000
11
0.336914
21
0.912109
31
0.500000
0
LINE
8
0
62
0
10
0.336914
20
0.912109
30
0.500000
11
0.330078
21
0.912109
31
0.500000
0
LINE
8
0
62
0
10
0.330078
20
0.912109
30
0.500000
11
0.322266
21
0.912109
31
0.500000
0
LINE
8
0
62
0
10
0.322266
20
0.912109
30
0.500000
11
0.315430
21
0.910156
31
0.500000
0
LINE
8
0
62
0
10
0.315430
20
0.910156
30
0.500000
11
0.309570
21
0.909180
31
0.500000
0
LINE
8
0
62
0
10
0.309570
20
0.909180
30
0.500000
11
0.303711
21
0.906250
31
0.500000
0
LINE
8
0
62
0
10
0.303711
20
0.906250
30
0.500000
11
0.297852
21
0.903320
31
0.500000
0
LINE
8
0
62
0
10
0.297852
20
0.903320
30
0.500000
11
0.292969
21
0.898438
31
0.500000
0
LINE
8
0
62
0
10
0.292969
20
0.898438
30
0.500000
11
0.289063
21
0.894531
31
0.500000
0
LINE
8
0
62
0
10
0.289063
20
0.894531
30
0.500000
11
0.285156
21
0.888672
31
0.500000
0
LINE
8
0
62
0
10
0.285156
20
0.888672
30
0.500000
11
0.281250
21
0.881836
31
0.500000
0
LINE
8
0
62
0
10
0.281250
20
0.881836
30
0.500000
11
0.278320
21
0.874023
31
0.500000
0
LINE
8
0
62
0
10
0.278320
20
0.874023
30
0.500000
11
0.276367
21
0.864258
31
0.500000
0
LINE
8
0
62
0
10
0.276367
20
0.864258
30
0.500000
11
0.274414
21
0.853516
31
0.500000
0
LINE
8
0
62
0
10
0.274414
20
0.853516
30
0.500000
11
0.272461
21
0.841797
31
0.500000
0
LINE
8
0
62
0
10
0.272461
20
0.841797
30
0.500000
11
0.271484
21
0.827148
31
0.500000
0
LINE
8
0
62
0
10
0.271484
20
0.827148
30
0.500000
11
0.270508
21
0.812500
31
0.500000
0
LINE
8
0
62
0
10
0.270508
20
0.812500
30
0.500000
11
0.270508
21
0.795898
31
0.500000
0
LINE
8
0
62
0
10
0.270508
20
0.795898
30
0.500000
11
0.270508
21
0.695313
31
0.500000
0
LINE
8
0
62
0
10
0.716797
20
0.277344
30
0.500000
11
0.715820
21
0.302734
31
0.500000
0
LINE
8
0
62
0
10
0.715820
20
0.302734
30
0.500000
11
0.715820
21
0.329102
31
0.500000
0
LINE
8
0
62
0
10
0.715820
20
0.329102
30
0.500000
11
0.715820
21
0.697266
31
0.500000
0
LINE
8
0
62
0
10
0.715820
20
0.697266
30
0.500000
11
0.715820
21
0.732422
31
0.500000
0
LINE
8
0
62
0
10
0.715820
20
0.732422
30
0.500000
11
0.717773
21
0.765625
31
0.500000
0
LINE
8
0
62
0
10
0.717773
20
0.765625
30
0.500000
11
0.719727
21
0.795898
31
0.500000
0
LINE
8
0
62
0
10
0.719727
20
0.795898
30
0.500000
11
0.721680
21
0.824219
31
0.500000
0
LINE
8
0
62
0
10
0.721680
20
0.824219
30
0.500000
11
0.725586
21
0.850586
31
0.500000
0
LINE
8
0
62
0
10
0.725586
20
0.850586
30
0.500000
11
0.729492
21
0.874023
31
0.500000
0
LINE
8
0
62
0
10
0.729492
20
0.874023
30
0.500000
11
0.735352
21
0.895508
31
0.500000
0
LINE
8
0
62
0
10
0.735352
20
0.895508
30
0.500000
11
0.741211
21
0.915039
31
0.500000
0
LINE
8
0
62
0
10
0.741211
20
0.915039
30
0.500000
11
0.748047
21
0.932617
31
0.500000
0
LINE
8
0
62
0
10
0.748047
20
0.932617
30
0.500000
11
0.756836
21
0.949219
31
0.500000
0
LINE
8
0
62
0
10
0.756836
20
0.949219
30
0.500000
11
0.766602
21
0.964844
31
0.500000
0
LINE
8
0
62
0
10
0.766602
20
0.964844
30
0.500000
11
0.778320
21
0.979492
31
0.500000
0
LINE
8
0
62
0
10
0.778320
20
0.979492
30
0.500000
11
0.791992
21
0.994141
31
0.500000
0
LINE
8
0
62
0
10
0.791992
20
0.994141
30
0.500000
11
0.806641
21
1.006836
31
0.500000
0
LINE
8
0
62
0
10
0.806641
20
1.006836
30
0.500000
11
0.822266
21
1.019531
31
0.500000
0
LINE
8
0
62
0
10
0.822266
20
1.019531
30
0.500000
11
0.840820
21
1.030273
31
0.500000
0
LINE
8
0
62
0
10
0.840820
20
1.030273
30
0.500000
11
0.859375
21
1.041016
31
0.500000
0
LINE
8
0
62
0
10
0.859375
20
1.041016
30
0.500000
11
0.879883
21
1.049805
31
0.500000
0
LINE
8
0
62
0
10
0.879883
20
1.049805
30
0.500000
11
0.900391
21
1.057617
31
0.500000
0
LINE
8
0
62
0
10
0.900391
20
1.057617
30
0.500000
11
0.922852
21
1.063477
31
0.500000
0
LINE
8
0
62
0
10
0.922852
20
1.063477
30
0.500000
11
0.946289
21
1.068359
31
0.500000
0
LINE
8
0
62
0
10
0.946289
20
1.068359
30
0.500000
11
0.969727
21
1.071289
31
0.500000
0
LINE
8
0
62
0
10
0.969727
20
1.071289
30
0.500000
11
0.995117
21
1.073242
31
0.500000
0
LINE
8
0
62
0
10
0.995117
20
1.073242
30
0.500000
11
1.020508
21
1.074219
31
0.500000
0
LINE
8
0
62
0
10
1.020508
20
1.074219
30
0.500000
11
1.041992
21
1.074219
31
0.500000
0
LINE
8
0
62
0
10
1.041992
20
1.074219
30
0.500000
11
1.063477
21
1.072266
31
0.500000
0
LINE
8
0
62
0
10
1.063477
20
1.072266
30
0.500000
11
1.083008
21
1.070313
31
0.500000
0
LINE
8
0
62
0
10
1.083008
20
1.070313
30
0.500000
11
1.102539
21
1.066406
31
0.500000
0
LINE
8
0
62
0
10
1.102539
20
1.066406
30
0.500000
11
1.122070
21
1.062500
31
0.500000
0
LINE
8
0
62
0
10
1.122070
20
1.062500
30
0.500000
11
1.140625
21
1.057617
31
0.500000
0
LINE
8
0
62
0
10
1.140625
20
1.057617
30
0.500000
11
1.158203
21
1.050781
31
0.500000
0
LINE
8
0
62
0
10
1.158203
20
1.050781
30
0.500000
11
1.175781
21
1.043945
31
0.500000
0
LINE
8
0
62
0
10
1.175781
20
1.043945
30
0.500000
11
1.192383
21
1.036133
31
0.500000
0
LINE
8
0
62
0
10
1.192383
20
1.036133
30
0.500000
11
1.208008
21
1.028320
31
0.500000
0
LINE
8
0
62
0
10
1.208008
20
1.028320
30
0.500000
11
1.222656
21
1.019531
31
0.500000
0
LINE
8
0
62
0
10
1.222656
20
1.019531
30
0.500000
11
1.235352
21
1.010742
31
0.500000
0
LINE
8
0
62
0
10
1.235352
20
1.010742
30
0.500000
11
1.248047
21
1.000977
31
0.500000
0
LINE
8
0
62
0
10
1.248047
20
1.000977
30
0.500000
11
1.258789
21
0.991211
31
0.500000
0
LINE
8
0
62
0
10
1.258789
20
0.991211
30
0.500000
11
1.268555
21
0.980469
31
0.500000
0
LINE
8
0
62
0
10
1.268555
20
0.980469
30
0.500000
11
1.278320
21
0.969727
31
0.500000
0
LINE
8
0
62
0
10
1.278320
20
0.969727
30
0.500000
11
1.286133
21
0.958984
31
0.500000
0
LINE
8
0
62
0
10
1.286133
20
0.958984
30
0.500000
11
1.293945
21
0.947266
31
0.500000
0
LINE
8
0
62
0
10
1.293945
20
0.947266
30
0.500000
11
1.300781
21
0.935547
31
0.500000
0
LINE
8
0
62
0
10
1.300781
20
0.935547
30
0.500000
11
1.306641
21
0.923828
31
0.500000
0
LINE
8
0
62
0
10
1.306641
20
0.923828
30
0.500000
11
1.311523
21
0.911133
31
0.500000
0
LINE
8
0
62
0
10
1.311523
20
0.911133
30
0.500000
11
1.316406
21
0.898438
31
0.500000
0
LINE
8
0
62
0
10
1.316406
20
0.898438
30
0.500000
11
1.320313
21
0.884766
31
0.500000
0
LINE
8
0
62
0
10
1.320313
20
0.884766
30
0.500000
11
1.324219
21
0.872070
31
0.500000
0
LINE
8
0
62
0
10
1.324219
20
0.872070
30
0.500000
11
1.327148
21
0.857422
31
0.500000
0
LINE
8
0
62
0
10
1.327148
20
0.857422
30
0.500000
11
1.329102
21
0.839844
31
0.500000
0
LINE
8
0
62
0
10
1.329102
20
0.839844
30
0.500000
11
1.331055
21
0.821289
31
0.500000
0
LINE
8
0
62
0
10
1.331055
20
0.821289
30
0.500000
11
1.333008
21
0.800781
31
0.500000
0
LINE
8
0
62
0
10
1.333008
20
0.800781
30
0.500000
11
1.333984
21
0.778320
31
0.500000
0
LINE
8
0
62
0
10
1.333984
20
0.778320
30
0.500000
11
1.334961
21
0.752930
31
0.500000
0
LINE
8
0
62
0
10
1.334961
20
0.752930
30
0.500000
11
1.335938
21
0.726563
31
0.500000
0
LINE
8
0
62
0
10
1.335938
20
0.726563
30
0.500000
11
1.335938
21
0.697266
31
0.500000
0
LINE
8
0
62
0
10
1.335938
20
0.697266
30
0.500000
11
1.335938
21
0.345703
31
0.500000
0
LINE
8
0
62
0
10
1.335938
20
0.345703
30
0.500000
11
1.335938
21
0.316406
31
0.500000
0
LINE
8
0
62
0
10
1.335938
20
0.316406
30
0.500000
11
1.334961
21
0.290039
31
0.500000
0
LINE
8
0
62
0
10
1.334961
20
0.290039
30
0.500000
11
1.333984
21
0.264648
31
0.500000
0
LINE
8
0
62
0
10
1.333984
20
0.264648
30
0.500000
11
1.333008
21
0.242188
31
0.500000
0
LINE
8
0
62
0
10
1.333008
20
0.242188
30
0.500000
11
1.331055
21
0.220703
31
0.500000
0
LINE
8
0
62
0
10
1.331055
20
0.220703
30
0.500000
11
1.329102
21
0.202148
31
0.500000
0
LINE
8
0
62
0
10
1.329102
20
0.202148
30
0.500000
11
1.326172
21
0.185547
31
0.500000
0
LINE
8
0
62
0
10
1.326172
20
0.185547
30
0.500000
11
1.323242
21
0.170898
31
0.500000
0
LINE
8
0
62
0
10
1.323242
20
0.170898
30
0.500000
11
1.319336
21
0.157227
31
0.500000
0
LINE
8
0
62
0
10
1.319336
20
0.157227
30
0.500000
11
1.314453
21
0.144531
31
0.500000
0
LINE
8
0
62
0
10
1.314453
20
0.144531
30
0.500000
11
1.309570
21
0.130859
31
0.500000
0
LINE
8
0
62
0
10
1.309570
20
0.130859
30
0.500000
11
1.302734
21
0.118164
31
0.500000
0
LINE
8
0
62
0
10
1.302734
20
0.118164
30
0.500000
11
1.295898
21
0.105469
31
0.500000
0
LINE
8
0
62
0
10
1.295898
20
0.105469
30
0.500000
11
1.288086
21
0.092773
31
0.500000
0
LINE
8
0
62
0
10
1.288086
20
0.092773
30
0.500000
11
1.278320
21
0.081055
31
0.500000
0
LINE
8
0
62
0
10
1.278320
20
0.081055
30
0.500000
11
1.268555
21
0.068359
31
0.500000
0
LINE
8
0
62
0
10
1.268555
20
0.068359
30
0.500000
11
1.258789
21
0.057617
31
0.500000
0
LINE
8
0
62
0
10
1.258789
20
0.057617
30
0.500000
11
1.247070
21
0.046875
31
0.500000
0
LINE
8
0
62
0
10
1.247070
20
0.046875
30
0.500000
11
1.235352
21
0.037109
31
0.500000
0
LINE
8
0
62
0
10
1.235352
20
0.037109
30
0.500000
11
1.223633
21
0.028320
31
0.500000
0
LINE
8
0
62
0
10
1.223633
20
0.028320
30
0.500000
11
1.210938
21
0.019531
31
0.500000
0
LINE
8
0
62
0
10
1.210938
20
0.019531
30
0.500000
11
1.198242
21
0.012695
31
0.500000
0
LINE
8
0
62
0
10
1.198242
20
0.012695
30
0.500000
11
1.184570
21
0.005859
31
0.500000
0
LINE
8
0
62
0
10
1.184570
20
0.005859
30
0.500000
11
1.169922
21
0.000000
31
0.500000
0
LINE
8
0
62
0
10
1.169922
20
0.000000
30
0.500000
11
1.155273
21
-0.004883
31
0.500000
0
LINE
8
0
62
0
10
1.155273
20
-0.004883
30
0.500000
11
1.140625
21
-0.008789
31
0.500000
0
LINE
8
0
62
0
10
1.140625
20
-0.008789
30
0.500000
11
1.125000
21
-0.012695
31
0.500000
0
LINE
8
0
62
0
10
1.125000
20
-0.012695
30
0.500000
11
1.108398
21
-0.015625
31
0.500000
0
LINE
8
0
62
0
10
1.108398
20
-0.015625
30
0.500000
11
1.091797
21
-0.017578
31
0.500000
0
LINE
8
0
62
0
10
1.091797
20
-0.017578
30
0.500000
11
1.075195
21
-0.019531
31
0.500000
0
LINE
8
0
62
0
10
1.075195
20
-0.019531
30
0.500000
11
1.058594
21
-0.020508
31
0.500000
0
LINE
8
0
62
0
10
1.058594
20
-0.020508
30
0.500000
11
1.040039
21
-0.020508
31
0.500000
0
LINE
8
0
62
0
10
1.040039
20
-0.020508
30
0.500000
11
1.017578
21
-0.020508
31
0.500000
0
LINE
8
0
62
0
10
1.017578
20
-0.020508
30
0.500000
11
0.995117
21
-0.019531
31
0.500000
0
LINE
8
0
62
0
10
0.995117
20
-0.019531
30
0.500000
11
0.974609
21
-0.017578
31
0.500000
0
LINE
8
0
62
0
10
0.974609
20
-0.017578
30
0.500000
11
0.954102
21
-0.014648
31
0.500000
0
LINE
8
0
62
0
10
0.954102
20
-0.014648
30
0.500000
11
0.934570
21
-0.011719
31
0.500000
0
LINE
8
0
62
0
10
0.934570
20
-0.011719
30
0.500000
11
0.916992
21
-0.007813
31
0.500000
0
LINE
8
0
62
0
10
0.916992
20
-0.007813
30
0.500000
11
0.899414
21
-0.003906
31
0.500000
0
LINE
8
0
62
0
10
0.899414
20
-0.003906
30
0.500000
11
0.883789
21
0.000977
31
0.500000
0
LINE
8
0
62
0
10
0.883789
20
0.000977
30
0.500000
11
0.868164
21
0.006836
31
0.500000
0
LINE
8
0
62
0
10
0.868164
20
0.006836
30
0.500000
11
0.854492
21
0.013672
31
0.500000
0
LINE
8
0
62
0
10
0.854492
20
0.013672
30
0.500000
11
0.840820
21
0.021484
31
0.500000
0
LINE
8
0
62
0
10
0.840820
20
0.021484
30
0.500000
11
0.827148
21
0.029297
31
0.500000
0
LINE
8
0
62
0
10
0.827148
20
0.029297
30
0.500000
11
0.815430
21
0.038086
31
0.500000
0
LINE
8
0
62
0
10
0.815430
20
0.038086
30
0.500000
11
0.804688
21
0.047852
31
0.500000
0
LINE
8
0
62
0
10
0.804688
20
0.047852
30
0.500000
11
0.793945
21
0.058594
31
0.500000
0
LINE
8
0
62
0
10
0.793945
20
0.058594
30
0.500000
11
0.784180
21
0.069336
31
0.500000
0
LINE
8
0
62
0
10
0.784180
20
0.069336
30
0.500000
11
0.775391
21
0.081055
31
0.500000
0
LINE
8
0
62
0
10
0.775391
20
0.081055
30
0.500000
11
0.766602
21
0.092773
31
0.500000
0
LINE
8
0
62
0
10
0.766602
20
0.092773
30
0.500000
11
0.759766
21
0.104492
31
0.500000
0
LINE
8
0
62
0
10
0.759766
20
0.104492
30
0.500000
11
0.751953
21
0.117188
31
0.500000
0
LINE
8
0
62
0
10
0.751953
20
0.117188
30
0.500000
11
0.746094
21
0.128906
31
0.500000
0
LINE
8
0
62
0
10
0.746094
20
0.128906
30
0.500000
11
0.740234
21
0.141602
31
0.500000
0
LINE
8
0
62
0
10
0.740234
20
0.141602
30
0.500000
11
0.735352
21
0.154297
31
0.500000
0
LINE
8
0
62
0
10
0.735352
20
0.154297
30
0.500000
11
0.731445
21
0.166992
31
0.500000
0
LINE
8
0
62
0
10
0.731445
20
0.166992
30
0.500000
11
0.727539
21
0.180664
31
0.500000
0
LINE
8
0
62
0
10
0.727539
20
0.180664
30
0.500000
11
0.724609
21
0.196289
31
0.500000
0
LINE
8
0
62
0
10
0.724609
20
0.196289
30
0.500000
11
0.721680
21
0.213867
31
0.500000
0
LINE
8
0
62
0
10
0.721680
20
0.213867
30
0.500000
11
0.719727
21
0.232422
31
0.500000
0
LINE
8
0
62
0
10
0.719727
20
0.232422
30
0.500000
11
0.717773
21
0.253906
31
0.500000
0
LINE
8
0
62
0
10
0.717773
20
0.253906
30
0.500000
11
0.716797
21
0.277344
31
0.500000
0
LINE
8
0
62
0
10
0.979492
20
0.823242
30
0.500000
11
0.979492
21
0.838867
31
0.500000
0
LINE
8
0
62
0
10
0.979492
20
0.838867
30
0.500000
11
0.980469
21
0.852539
31
0.500000
0
LINE
8
0
62
0
10
0.980469
20
0.852539
30
0.500000
11
0.982422
21
0.864258
31
0.500000
0
LINE
8
0
62
0
10
0.982422
20
0.864258
30
0.500000
11
0.983398
21
0.875000
31
0.500000
0
LINE
8
0
62
0
10
0.983398
20
0.875000
30
0.500000
11
0.985352
21
0.882813
31
0.500000
0
LINE
8
0
62
0
10
0.985352
20
0.882813
30
0.500000
11
0.988281
21
0.889648
31
0.500000
0
LINE
8
0
62
0
10
0.988281
20
0.889648
30
0.500000
11
0.990234
21
0.894531
31
0.500000
0
LINE
8
0
62
0
10
0.990234
20
0.894531
30
0.500000
11
0.994141
21
0.899414
31
0.500000
0
LINE
8
0
62
0
10
0.994141
20
0.899414
30
0.500000
11
0.998047
21
0.903320
31
0.500000
0
LINE
8
0
62
0
10
0.998047
20
0.903320
30
0.500000
11
1.002930
21
0.906250
31
0.500000
0
LINE
8
0
62
0
10
1.002930
20
0.906250
30
0.500000
11
1.007813
21
0.909180
31
0.500000
0
LINE
8
0
62
0
10
1.007813
20
0.909180
30
0.500000
11
1.013672
21
0.911133
31
0.500000
0
LINE
8
0
62
0
10
1.013672
20
0.911133
30
0.500000
11
1.019531
21
0.912109
31
0.500000
0
LINE
8
0
62
0
10
1.019531
20
0.912109
30
0.500000
11
1.026367
21
0.912109
31
0.500000
0
LINE
8
0
62
0
10
1.026367
20
0.912109
30
0.500000
11
1.034180
21
0.912109
31
0.500000
0
LINE
8
0
62
0
10
1.034180
20
0.912109
30
0.500000
11
1.040039
21
0.911133
31
0.500000
0
LINE
8
0
62
0
10
1.040039
20
0.911133
30
0.500000
11
1.045898
21
0.909180
31
0.500000
0
LINE
8
0
62
0
10
1.045898
20
0.909180
30
0.500000
11
1.051758
21
0.907227
31
0.500000
0
LINE
8
0
62
0
10
1.051758
20
0.907227
30
0.500000
11
1.055664
21
0.904297
31
0.500000
0
LINE
8
0
62
0
10
1.055664
20
0.904297
30
0.500000
11
1.059570
21
0.900391
31
0.500000
0
LINE
8
0
62
0
10
1.059570
20
0.900391
30
0.500000
11
1.062500
21
0.895508
31
0.500000
0
LINE
8
0
62
0
10
1.062500
20
0.895508
30
0.500000
11
1.065430
21
0.890625
31
0.500000
0
LINE
8
0
62
0
10
1.065430
20
0.890625
30
0.500000
11
1.067383
21
0.884766
31
0.500000
0
LINE
8
0
62
0
10
1.067383
20
0.884766
30
0.500000
11
1.068359
21
0.875977
31
0.500000
0
LINE
8
0
62
0
10
1.068359
20
0.875977
30
0.500000
11
1.070313
21
0.866211
31
0.500000
0
LINE
8
0
62
0
10
1.070313
20
0.866211
30
0.500000
11
1.071289
21
0.854492
31
0.500000
0
LINE
8
0
62
0
10
1.071289
20
0.854492
30
0.500000
11
1.072266
21
0.839844
31
0.500000
0
LINE
8
0
62
0
10
1.072266
20
0.839844
30
0.500000
11
1.072266
21
0.824219
31
0.500000
0
LINE
8
0
62
0
10
1.072266
20
0.824219
30
0.500000
11
1.073242
21
0.805664
31
0.500000
0
LINE
8
0
62
0
10
1.073242
20
0.805664
30
0.500000
11
1.073242
21
0.786133
31
0.500000
0
LINE
8
0
62
0
10
1.073242
20
0.786133
30
0.500000
11
1.073242
21
0.263672
31
0.500000
0
LINE
8
0
62
0
10
1.073242
20
0.263672
30
0.500000
11
1.073242
21
0.245117
31
0.500000
0
LINE
8
0
62
0
10
1.073242
20
0.245117
30
0.500000
11
1.072266
21
0.228516
31
0.500000
0
LINE
8
0
62
0
10
1.072266
20
0.228516
30
0.500000
11
1.072266
21
0.212891
31
0.500000
0
LINE
8
0
62
0
10
1.072266
20
0.212891
30
0.500000
11
1.071289
21
0.200195
31
0.500000
0
LINE
8
0
62
0
10
1.071289
20
0.200195
30
0.500000
11
1.069336
21
0.188477
31
0.500000
0
LINE
8
0
62
0
10
1.069336
20
0.188477
30
0.500000
11
1.068359
21
0.178711
31
0.500000
0
LINE
8
0
62
0
10
1.068359
20
0.178711
30
0.500000
11
1.066406
21
0.169922
31
0.500000
0
LINE
8
0
62
0
10
1.066406
20
0.169922
30
0.500000
11
1.064453
21
0.164063
31
0.500000
0
LINE
8
0
62
0
10
1.064453
20
0.164063
30
0.500000
11
1.061523
21
0.158203
31
0.500000
0
LINE
8
0
62
0
10
1.061523
20
0.158203
30
0.500000
11
1.058594
21
0.154297
31
0.500000
0
LINE
8
0
62
0
10
1.058594
20
0.154297
30
0.500000
11
1.054688
21
0.150391
31
0.500000
0
LINE
8
0
62
0
10
1.054688
20
0.150391
30
0.500000
11
1.049805
21
0.147461
31
0.500000
0
LINE
8
0
62
0
10
1.049805
20
0.147461
30
0.500000
11
1.044922
21
0.144531
31
0.500000
0
LINE
8
0
62
0
10
1.044922
20
0.144531
30
0.500000
11
1.039063
21
0.142578
31
0.500000
0
LINE
8
0
62
0
10
1.039063
20
0.142578
30
0.500000
11
1.032227
21
0.141602
31
0.500000
0
LINE
8
0
62
0
10
1.032227
20
0.141602
30
0.500000
11
1.025391
21
0.141602
31
0.500000
0
LINE
8
0
62
0
10
1.025391
20
0.141602
30
0.500000
11
1.018555
21
0.141602
31
0.500000
0
LINE
8
0
62
0
10
1.018555
20
0.141602
30
0.500000
11
1.011719
21
0.142578
31
0.500000
0
LINE
8
0
62
0
10
1.011719
20
0.142578
30
0.500000
11
1.006836
21
0.144531
31
0.500000
0
LINE
8
0
62
0
10
1.006836
20
0.144531
30
0.500000
11
1.000977
21
0.146484
31
0.500000
0
LINE
8
0
62
0
10
1.000977
20
0.146484
30
0.500000
11
0.997070
21
0.149414
31
0.500000
0
LINE
8
0
62
0
10
0.997070
20
0.149414
30
0.500000
11
0.993164
21
0.152344
31
0.500000
0
LINE
8
0
62
0
10
0.993164
20
0.152344
30
0.500000
11
0.990234
21
0.156250
31
0.500000
0
LINE
8
0
62
0
10
0.990234
20
0.156250
30
0.500000
11
0.987305
21
0.160156
31
0.500000
0
LINE
8
0
62
0
10
0.987305
20
0.160156
30
0.500000
11
0.985352
21
0.166016
31
0.500000
0
LINE
8
0
62
0
10
0.985352
20
0.166016
30
0.500000
11
0.983398
21
0.174805
31
0.500000
0
LINE
8
0
62
0
10
0.983398
20
0.174805
30
0.500000
11
0.982422
21
0.184570
31
0.500000
0
LINE
8
0
62
0
10
0.982422
20
0.184570
30
0.500000
11
0.980469
21
0.197266
31
0.500000
0
LINE
8
0
62
0
10
0.980469
20
0.197266
30
0.500000
11
0.979492
21
0.212891
31
0.500000
0
LINE
8
0
62
0
10
0.979492
20
0.212891
30
0.500000
11
0.979492
21
0.229492
31
0.500000
0
LINE
8
0
62
0
10
0.979492
20
0.229492
30
0.500000
11
0.978516
21
0.249023
31
0.500000
0
LINE
8
0
62
0
10
0.978516
20
0.249023
30
0.500000
11
0.978516
21
0.271484
31
0.500000
0
LINE
8
0
62
0
10
0.978516
20
0.271484
30
0.500000
11
0.978516
21
0.786133
31
0.500000
0
LINE
8
0
62
0
10
0.978516
20
0.786133
30
0.500000
11
0.978516
21
0.805664
31
0.500000
0
LINE
8
0
62
0
10
0.978516
20
0.805664
30
0.500000
11
0.979492
21
0.823242
31
0.500000
0
LINE
8
0
62
0
10
1.391602
20
0.761719
30
0.500000
11
1.391602
21
0.884766
31
0.500000
0
LINE
8
0
62
0
10
1.391602
20
0.884766
30
0.500000
11
1.437500
21
0.896484
31
0.500000
0
LINE
8
0
62
0
10
1.437500
20
0.896484
30
0.500000
11
1.481445
21
0.910156
31
0.500000
0
LINE
8
0
62
0
10
1.481445
20
0.910156
30
0.500000
11
1.521484
21
0.927734
31
0.500000
0
LINE
8
0
62
0
10
1.521484
20
0.927734
30
0.500000
11
1.559570
21
0.947266
31
0.500000
0
LINE
8
0
62
0
10
1.559570
20
0.947266
30
0.500000
11
1.594727
21
0.969727
31
0.500000
0
LINE
8
0
62
0
10
1.594727
20
0.969727
30
0.500000
11
1.625977
21
0.995117
31
0.500000
0
LINE
8
0
62
0
10
1.625977
20
0.995117
30
0.500000
11
1.655273
21
1.023438
31
0.500000
0
LINE
8
0
62
0
10
1.655273
20
1.023438
30
0.500000
11
1.681641
21
1.053711
31
0.500000
0
LINE
8
0
62
0
10
1.681641
20
1.053711
30
0.500000
11
1.835938
21
1.053711
31
0.500000
0
LINE
8
0
62
0
10
1.835938
20
1.053711
30
0.500000
11
1.835938
21
0.000000
31
0.500000
0
LINE
8
0
62
0
10
1.835938
20
0.000000
30
0.500000
11
1.573242
21
0.000000
31
0.500000
0
LINE
8
0
62
0
10
1.573242
20
0.000000
30
0.500000
11
1.573242
21
0.564453
31
0.500000
0
LINE
8
0
62
0
10
1.573242
20
0.564453
30
0.500000
11
1.573242
21
0.593750
31
0.500000
0
LINE
8
0
62
0
10
1.573242
20
0.593750
30
0.500000
11
1.573242
21
0.620117
31
0.500000
0
LINE
8
0
62
0
10
1.573242
20
0.620117
30
0.500000
11
1.572266
21
0.642578
31
0.500000
0
LINE
8
0
62
0
10
1.572266
20
0.642578
30
0.500000
11
1.571289
21
0.662109
31
0.500000
0
LINE
8
0
62
0
10
1.571289
20
0.662109
30
0.500000
11
1.571289
21
0.679688
31
0.500000
0
LINE
8
0
62
0
10
1.571289
20
0.679688
30
0.500000
11
1.570313
21
0.693359
31
0.500000
0
LINE
8
0
62
0
10
1.570313
20
0.693359
30
0.500000
11
1.568359
21
0.704102
31
0.500000
0
LINE
8
0
62
0
10
1.568359
20
0.704102
30
0.500000
11
1.567383
21
0.711914
31
0.500000
0
LINE
8
0
62
0
10
1.567383
20
0.711914
30
0.500000
11
1.565430
21
0.717773
31
0.500000
0
LINE
8
0
62
0
10
1.565430
20
0.717773
30
0.500000
11
1.563477
21
0.723633
31
0.500000
0
LINE
8
0
62
0
10
1.563477
20
0.723633
30
0.500000
11
1.560547
21
0.728516
31
0.500000
0
LINE
8
0
62
0
10
1.560547
20
0.728516
30
0.500000
11
1.556641
21
0.733398
31
0.500000
0
LINE
8
0
62
0
10
1.556641
20
0.733398
30
0.500000
11
1.551758
21
0.738281
31
0.500000
0
LINE
8
0
62
0
10
1.551758
20
0.738281
30
0.500000
11
1.546875
21
0.742188
31
0.500000
0
LINE
8
0
62
0
10
1.546875
20
0.742188
30
0.500000
11
1.541016
21
0.746094
31
0.500000
0
LINE
8
0
62
0
10
1.541016
20
0.746094
30
0.500000
11
1.535156
21
0.749023
31
0.500000
0
LINE
8
0
62
0
10
1.535156
20
0.749023
30
0.500000
11
1.527344
21
0.751953
31
0.500000
0
LINE
8
0
62
0
10
1.527344
20
0.751953
30
0.500000
11
1.517578
21
0.754883
31
0.500000
0
LINE
8
0
62
0
10
1.517578
20
0.754883
30
0.500000
11
1.505859
21
0.756836
31
0.500000
0
LINE
8
0
62
0
10
1.505859
20
0.756836
30
0.500000
11
1.492188
21
0.758789
31
0.500000
0
LINE
8
0
62
0
10
1.492188
20
0.758789
30
0.500000
11
1.476563
21
0.759766
31
0.500000
0
LINE
8
0
62
0
10
1.476563
20
0.759766
30
0.500000
11
1.458984
21
0.760742
31
0.500000
0
LINE
8
0
62
0
10
1.458984
20
0.760742
30
0.500000
11
1.439453
21
0.761719
31
0.500000
0
LINE
8
0
62
0
10
1.439453
20
0.761719
30
0.500000
11
1.417969
21
0.761719
31
0.500000
0
LINE
8
0
62
0
10
1.417969
20
0.761719
30
0.500000
11
1.391602
21
0.761719
31
0.500000
0
LINE
8
0
62
0
10
2.197266
20
0.394531
30
0.500000
11
2.197266
21
0.329102
31
0.500000
0
LINE
8
0
62
0
10
2.197266
20
0.329102
30
0.500000
11
2.197266
21
0.304688
31
0.500000
0
LINE
8
0
62
0
10
2.197266
20
0.304688
30
0.500000
11
2.197266
21
0.282227
31
0.500000
0
LINE
8
0
62
0
10
2.197266
20
0.282227
30
0.500000
11
2.198242
21
0.260742
31
0.500000
0
LINE
8
0
62
0
10
2.198242
20
0.260742
30
0.500000
11
2.199219
21
0.242188
31
0.500000
0
LINE
8
0
62
0
10
2.199219
20
0.242188
30
0.500000
11
2.200195
21
0.224609
31
0.500000
0
LINE
8
0
62
0
10
2.200195
20
0.224609
30
0.500000
11
2.201172
21
0.209961
31
0.500000
0
LINE
8
0
62
0
10
2.201172
20
0.209961
30
0.500000
11
2.203125
21
0.196289
31
0.500000
0
LINE
8
0
62
0
10
2.203125
20
0.196289
30
0.500000
11
2.204102
21
0.184570
31
0.500000
0
LINE
8
0
62
0
10
2.204102
20
0.184570
30
0.500000
11
2.207031
21
0.174805
31
0.500000
0
LINE
8
0
62
0
10
2.207031
20
0.174805
30
0.500000
11
2.209961
21
0.166016
31
0.500000
0
LINE
8
0
62
0
10
2.209961
20
0.166016
30
0.500000
11
2.214844
21
0.158203
31
0.500000
0
LINE
8
0
62
0
10
2.214844
20
0.158203
30
0.500000
11
2.220703
21
0.152344
31
0.500000
0
LINE
8
0
62
0
10
2.220703
20
0.152344
30
0.500000
11
2.227539
21
0.147461
31
0.500000
0
LINE
8
0
62
0
10
2.227539
20
0.147461
30
0.500000
11
2.235352
21
0.144531
31
0.500000
0
LINE
8
0
62
0
10
2.235352
20
0.144531
30
0.500000
11
2.244141
21
0.142578
31
0.500000
0
LINE
8
0
62
0
10
2.244141
20
0.142578
30
0.500000
11
2.253906
21
0.141602
31
0.500000
0
LINE
8
0
62
0
10
2.253906
20
0.141602
30
0.500000
11
2.258789
21
0.141602
31
0.500000
0
LINE
8
0
62
0
10
2.258789
20
0.141602
30
0.500000
11
2.263672
21
0.142578
31
0.500000
0
LINE
8
0
62
0
10
2.263672
20
0.142578
30
0.500000
11
2.267578
21
0.143555
31
0.500000
0
LINE
8
0
62
0
10
2.267578
20
0.143555
30
0.500000
11
2.271484
21
0.144531
31
0.500000
0
LINE
8
0
62
0
10
2.271484
20
0.144531
30
0.500000
11
2.275391
21
0.146484
31
0.500000
0
LINE
8
0
62
0
10
2.275391
20
0.146484
30
0.500000
11
2.279297
21
0.148438
31
0.500000
0
LINE
8
0
62
0
10
2.279297
20
0.148438
30
0.500000
11
2.282227
21
0.151367
31
0.500000
0
LINE
8
0
62
0
10
2.282227
20
0.151367
30
0.500000
11
2.285156
21
0.154297
31
0.500000
0
LINE
8
0
62
0
10
2.285156
20
0.154297
30
0.500000
11
2.288086
21
0.157227
31
0.500000
0
LINE
8
0
62
0
10
2.288086
20
0.157227
30
0.500000
11
2.291016
21
0.160156
31
0.500000
0
LINE
8
0
62
0
10
2.291016
20
0.160156
30
0.500000
11
2.292969
21
0.163086
31
0.500000
0
LINE
8
0
62
0
10
2.292969
20
0.163086
30
0.500000
11
2.294922
21
0.166992
31
0.500000
0
LINE
8
0
62
0
10
2.294922
20
0.166992
30
0.500000
11
2.295898
21
0.169922
31
0.500000
0
LINE
8
0
62
0
10
2.295898
20
0.169922
30
0.500000
11
2.296875
21
0.173828
31
0.500000
0
LINE
8
0
62
0
10
2.296875
20
0.173828
30
0.500000
11
2.297852
21
0.176758
31
0.500000
0
LINE
8
0
62
0
10
2.297852
20
0.176758
30
0.500000
11
2.298828
21
0.180664
31
0.500000
0
LINE
8
0
62
0
10
2.298828
20
0.180664
30
0.500000
11
2.298828
21
0.185547
31
0.500000
0
LINE
8
0
62
0
10
2.298828
20
0.185547
30
0.500000
11
2.298828
21
0.193359
31
0.500000
0
LINE
8
0
62
0
10
2.298828
20
0.193359
30
0.500000
11
2.298828
21
0.205078
31
0.500000
0
LINE
8
0
62
0
10
2.298828
20
0.205078
30
0.500000
11
2.299805
21
0.218750
31
0.500000
0
LINE
8
0
62
0
10
2.299805
20
0.218750
30
0.500000
11
2.299805
21
0.235352
31
0.500000
0
LINE
8
0
62
0
10
2.299805
20
0.235352
30
0.500000
11
2.299805
21
0.255859
31
0.500000
0
LINE
8
0
62
0
10
2.299805
20
0.255859
30
0.500000
11
2.300781
21
0.278320
31
0.500000
0
LINE
8
0
62
0
10
2.300781
20
0.278320
30
0.500000
11
2.300781
21
0.304688
31
0.500000
0
LINE
8
0
62
0
10
2.300781
20
0.304688
30
0.500000
11
2.300781
21
0.513672
31
0.500000
0
LINE
8
0
62
0
10
2.300781
20
0.513672
30
0.500000
11
2.300781
21
0.527344
31
0.500000
0
LINE
8
0
62
0
10
2.300781
20
0.527344
30
0.500000
11
2.299805
21
0.540039
31
0.500000
0
LINE
8
0
62
0
10
2.299805
20
0.540039
30
0.500000
11
2.298828
21
0.552734
31
0.500000
0
LINE
8
0
62
0
10
2.298828
20
0.552734
30
0.500000
11
2.297852
21
0.562500
31
0.500000
0
LINE
8
0
62
0
10
2.297852
20
0.562500
30
0.500000
11
2.295898
21
0.572266
31
0.500000
0
LINE
8
0
62
0
10
2.295898
20
0.572266
30
0.500000
11
2.293945
21
0.581055
31
0.500000
0
LINE
8
0
62
0
10
2.293945
20
0.581055
30
0.500000
11
2.291016
21
0.587891
31
0.500000
0
LINE
8
0
62
0
10
2.291016
20
0.587891
30
0.500000
11
2.288086
21
0.593750
31
0.500000
0
LINE
8
0
62
0
10
2.288086
20
0.593750
30
0.500000
11
2.285156
21
0.598633
31
0.500000
0
LINE
8
0
62
0
10
2.285156
20
0.598633
30
0.500000
11
2.281250
21
0.603516
31
0.500000
0
LINE
8
0
62
0
10
2.281250
20
0.603516
30
0.500000
11
2.276367
21
0.606445
31
0.500000
0
LINE
8
0
62
0
10
2.276367
20
0.606445
30
0.500000
11
2.272461
21
0.610352
31
0.500000
0
LINE
8
0
62
0
10
2.272461
20
0.610352
30
0.500000
11
2.266602
21
0.612305
31
0.500000
0
LINE
8
0
62
0
10
2.266602
20
0.612305
30
0.500000
11
2.260742
21
0.614258
31
0.500000
0
LINE
8
0
62
0
10
2.260742
20
0.614258
30
0.500000
11
2.253906
21
0.615234
31
0.500000
0
LINE
8
0
62
0
10
2.253906
20
0.615234
30
0.500000
11
2.247070
21
0.615234
31
0.500000
0
LINE
8
0
62
0
10
2.247070
20
0.615234
30
0.500000
11
2.243164
21
0.615234
31
0.500000
0
LINE
8
0
62
0
10
2.243164
20
0.615234
30
0.500000
11
2.238281
21
0.614258
31
0.500000
0
LINE
8
0
62
0
10
2.238281
20
0.614258
30
0.500000
11
2.234375
21
0.613281
31
0.500000
0
LINE
8
0
62
0
10
2.234375
20
0.613281
30
0.500000
11
2.230469
21
0.612305
31
0.500000
0
LINE
8
0
62
0
10
2.230469
20
0.612305
30
0.500000
11
2.226563
21
0.611328
31
0.500000
0
LINE
8
0
62
0
10
2.226563
20
0.611328
30
0.500000
11
2.223633
21
0.609375
31
0.500000
0
LINE
8
0
62
0
10
2.223633
20
0.609375
30
0.500000
11
2.219727
21
0.606445
31
0.500000
0
LINE
8
0
62
0
10
2.219727
20
0.606445
30
0.500000
11
2.216797
21
0.604492
31
0.500000
0
LINE
8
0
62
0
10
2.216797
20
0.604492
30
0.500000
11
2.213867
21
0.601563
31
0.500000
0
LINE
8
0
62
0
10
2.213867
20
0.601563
30
0.500000
11
2.210938
21
0.598633
31
0.500000
0
LINE
8
0
62
0
10
2.210938
20
0.598633
30
0.500000
11
2.208984
21
0.595703
31
0.500000
0
LINE
8
0
62
0
10
2.208984
20
0.595703
30
0.500000
11
2.207031
21
0.592773
31
0.500000
0
LINE
8
0
62
0
10
2.207031
20
0.592773
30
0.500000
11
2.205078
21
0.589844
31
0.500000
0
LINE
8
0
62
0
10
2.205078
20
0.589844
30
0.500000
11
2.203125
21
0.586914
31
0.500000
0
LINE
8
0
62
0
10
2.203125
20
0.586914
30
0.500000
11
2.202148
21
0.583984
31
0.500000
0
LINE
8
0
62
0
10
2.202148
20
0.583984
30
0.500000
11
2.201172
21
0.580078
31
0.500000
0
LINE
8
0
62
0
10
2.201172
20
0.580078
30
0.500000
11
2.200195
21
0.577148
31
0.500000
0
LINE
8
0
62
0
10
2.200195
20
0.577148
30
0.500000
11
2.199219
21
0.572266
31
0.500000
0
LINE
8
0
62
0
10
2.199219
20
0.572266
30
0.500000
11
2.198242
21
0.566406
31
0.500000
0
LINE
8
0
62
0
10
2.198242
20
0.566406
30
0.500000
11
2.198242
21
0.559570
31
0.500000
0
LINE
8
0
62
0
10
2.198242
20
0.559570
30
0.500000
11
2.198242
21
0.551758
31
0.500000
0
LINE
8
0
62
0
10
2.198242
20
0.551758
30
0.500000
11
2.197266
21
0.542969
31
0.500000
0
LINE
8
0
62
0
10
2.197266
20
0.542969
30
0.500000
11
2.197266
21
0.532227
31
0.500000
0
LINE
8
0
62
0
10
2.197266
20
0.532227
30
0.500000
11
2.197266
21
0.521484
31
0.500000
0
LINE
8
0
62
0
10
2.197266
20
0.521484
30
0.500000
11
1.937500
21
0.521484
31
0.500000
0
LINE
8
0
62
0
10
1.937500
20
0.521484
30
0.500000
11
1.948242
21
1.053711
31
0.500000
0
LINE
8
0
62
0
10
1.948242
20
1.053711
30
0.500000
11
2.511719
21
1.053711
31
0.500000
0
LINE
8
0
62
0
10
2.511719
20
1.053711
30
0.500000
11
2.511719
21
0.884766
31
0.500000
0
LINE
8
0
62
0
10
2.511719
20
0.884766
30
0.500000
11
2.186523
21
0.884766
31
0.500000
0
LINE
8
0
62
0
10
2.186523
20
0.884766
30
0.500000
11
2.186523
21
0.705078
31
0.500000
0
LINE
8
0
62
0
10
2.186523
20
0.705078
30
0.500000
11
2.202148
21
0.721680
31
0.500000
0
LINE
8
0
62
0
10
2.202148
20
0.721680
30
0.500000
11
2.219727
21
0.736328
31
0.500000
0
LINE
8
0
62
0
10
2.219727
20
0.736328
30
0.500000
11
2.237305
21
0.749023
31
0.500000
0
LINE
8
0
62
0
10
2.237305
20
0.749023
30
0.500000
11
2.256836
21
0.759766
31
0.500000
0
LINE
8
0
62
0
10
2.256836
20
0.759766
30
0.500000
11
2.276367
21
0.767578
31
0.500000
0
LINE
8
0
62
0
10
2.276367
20
0.767578
30
0.500000
11
2.297852
21
0.772461
31
0.500000
0
LINE
8
0
62
0
10
2.297852
20
0.772461
30
0.500000
11
2.320313
21
0.776367
31
0.500000
0
LINE
8
0
62
0
10
2.320313
20
0.776367
30
0.500000
11
2.343750
21
0.777344
31
0.500000
0
LINE
8
0
62
0
10
2.343750
20
0.777344
30
0.500000
11
2.370117
21
0.776367
31
0.500000
0
LINE
8
0
62
0
10
2.370117
20
0.776367
30
0.500000
11
2.394531
21
0.773438
31
0.500000
0
LINE
8
0
62
0
10
2.394531
20
0.773438
30
0.500000
11
2.417969
21
0.768555
31
0.500000
0
LINE
8
0
62
0
10
2.417969
20
0.768555
30
0.500000
11
2.439453
21
0.761719
31
0.500000
0
LINE
8
0
62
0
10
2.439453
20
0.761719
30
0.500000
11
2.458984
21
0.753906
31
0.500000
0
LINE
8
0
62
0
10
2.458984
20
0.753906
30
0.500000
11
2.476563
21
0.743164
31
0.500000
0
LINE
8
0
62
0
10
2.476563
20
0.743164
30
0.500000
11
2.493164
21
0.730469
31
0.500000
0
LINE
8
0
62
0
10
2.493164
20
0.730469
30
0.500000
11
2.507813
21
0.716797
31
0.500000
0
LINE
8
0
62
0
10
2.507813
20
0.716797
30
0.500000
11
2.520508
21
0.699219
31
0.500000
0
LINE
8
0
62
0
10
2.520508
20
0.699219
30
0.500000
11
2.532227
21
0.678711
31
0.500000
0
LINE
8
0
62
0
10
2.532227
20
0.678711
30
0.500000
11
2.541992
21
0.655273
31
0.500000
0
LINE
8
0
62
0
10
2.541992
20
0.655273
30
0.500000
11
2.549805
21
0.627930
31
0.500000
0
LINE
8
0
62
0
10
2.549805
20
0.627930
30
0.500000
11
2.555664
21
0.596680
31
0.500000
0
LINE
8
0
62
0
10
2.555664
20
0.596680
30
0.500000
11
2.559570
21
0.562500
31
0.500000
0
LINE
8
0
62
0
10
2.559570
20
0.562500
30
0.500000
11
2.562500
21
0.524414
31
0.500000
0
LINE
8
0
62
0
10
2.562500
20
0.524414
30
0.500000
11
2.563477
21
0.482422
31
0.500000
0
LINE
8
0
62
0
10
2.563477
20
0.482422
30
0.500000
11
2.563477
21
0.333008
31
0.500000
0
LINE
8
0
62
0
10
2.563477
20
0.333008
30
0.500000
11
2.563477
21
0.305664
31
0.500000
0
LINE
8
0
62
0
10
2.563477
20
0.305664
30
0.500000
11
2.562500
21
0.280273
31
0.500000
0
LINE
8
0
62
0
10
2.562500
20
0.280273
30
0.500000
11
2.561523
21
0.256836
31
0.500000
0
LINE
8
0
62
0
10
2.561523
20
0.256836
30
0.500000
11
2.560547
21
0.235352
31
0.500000
0
LINE
8
0
62
0
10
2.560547
20
0.235352
30
0.500000
11
2.559570
21
0.215820
31
0.500000
0
LINE
8
0
62
0
10
2.559570
20
0.215820
30
0.500000
11
2.557617
21
0.198242
31
0.500000
0
LINE
8
0
62
0
10
2.557617
20
0.198242
30
0.500000
11
2.555664
21
0.182617
31
0.500000
0
LINE
8
0
62
0
10
2.555664
20
0.182617
30
0.500000
11
2.552734
21
0.167969
31
0.500000
0
LINE
8
0
62
0
10
2.552734
20
0.167969
30
0.500000
11
2.549805
21
0.155273
31
0.500000
0
LINE
8
0
62
0
10
2.549805
20
0.155273
30
0.500000
11
2.545898
21
0.142578
31
0.500000
0
LINE
8
0
62
0
10
2.545898
20
0.142578
30
0.500000
11
2.541016
21
0.129883
31
0.500000
0
LINE
8
0
62
0
10
2.541016
20
0.129883
30
0.500000
11
2.536133
21
0.118164
31
0.500000
0
LINE
8
0
62
0
10
2.536133
20
0.118164
30
0.500000
11
2.530273
21
0.106445
31
0.500000
0
LINE
8
0
62
0
10
2.530273
20
0.106445
30
0.500000
11
2.522461
21
0.094727
31
0.500000
0
LINE
8
0
62
0
10
2.522461
20
0.094727
30
0.500000
11
2.515625
21
0.083008
31
0.500000
0
LINE
8
0
62
0
10
2.515625
20
0.083008
30
0.500000
11
2.506836
21
0.071289
31
0.500000
0
LINE
8
0
62
0
10
2.506836
20
0.071289
30
0.500000
11
2.498047
21
0.060547
31
0.500000
0
LINE
8
0
62
0
10
2.498047
20
0.060547
30
0.500000
11
2.487305
21
0.050781
31
0.500000
0
LINE
8
0
62
0
10
2.487305
20
0.050781
30
0.500000
11
2.476563
21
0.041016
31
0.500000
0
LINE
8
0
62
0
10
2.476563
20
0.041016
30
0.500000
11
2.464844
21
0.032227
31
0.500000
0
LINE
8
0
62
0
10
2.464844
20
0.032227
30
0.500000
11
2.452148
21
0.024414
31
0.500000
0
LINE
8
0
62
0
10
2.452148
20
0.024414
30
0.500000
11
2.438477
21
0.016602
31
0.500000
0
LINE
8
0
62
0
10
2.438477
20
0.016602
30
0.500000
11
2.423828
21
0.009766
31
0.500000
0
LINE
8
0
62
0
10
2.423828
20
0.009766
30
0.500000
11
2.409180
21
0.002930
31
0.500000
0
LINE
8
0
62
0
10
2.409180
20
0.002930
30
0.500000
11
2.392578
21
-0.001953
31
0.500000
0
LINE
8
0
62
0
10
2.392578
20
-0.001953
30
0.500000
11
2.375977
21
-0.006836
31
0.500000
0
LINE
8
0
62
0
10
2.375977
20
-0.006836
30
0.500000
11
2.358398
21
-0.011719
31
0.500000
0
LINE
8
0
62
0
10
2.358398
20
-0.011719
30
0.500000
11
2.338867
21
-0.014648
31
0.500000
0
LINE
8
0
62
0
10
2.338867
20
-0.014648
30
0.500000
11
2.319336
21
-0.017578
31
0.500000
0
LINE
8
0
62
0
10
2.319336
20
-0.017578
30
0.500000
11
2.299805
21
-0.018555
31
0.500000
0
LINE
8
0
62
0
10
2.299805
20
-0.018555
30
0.500000
11
2.278320
21
-0.020508
31
0.500000
0
LINE
8
0
62
0
10
2.278320
20
-0.020508
30
0.500000
11
2.255859
21
-0.020508
31
0.500000
0
LINE
8
0
62
0
10
2.255859
20
-0.020508
30
0.500000
11
2.230469
21
-0.019531
31
0.500000
0
LINE
8
0
62
0
10
2.230469
20
-0.019531
30
0.500000
11
2.207031
21
-0.018555
31
0.500000
0
LINE
8
0
62
0
10
2.207031
20
-0.018555
30
0.500000
11
2.183594
21
-0.015625
31
0.500000
0
LINE
8
0
62
0
10
2.183594
20
-0.015625
30
0.500000
11
2.160156
21
-0.011719
31
0.500000
0
LINE
8
0
62
0
10
2.160156
20
-0.011719
30
0.500000
11
2.138672
21
-0.006836
31
0.500000
0
LINE
8
0
62
0
10
2.138672
20
-0.006836
30
0.500000
11
2.117188
21
-0.000977
31
0.500000
0
LINE
8
0
62
0
10
2.117188
20
-0.000977
30
0.500000
11
2.096680
21
0.006836
31
0.500000
0
LINE
8
0
62
0
10
2.096680
20
0.006836
30
0.500000
11
2.077148
21
0.014648
31
0.500000
0
LINE
8
0
62
0
10
2.077148
20
0.014648
30
0.500000
11
2.058594
21
0.024414
31
0.500000
0
LINE
8
0
62
0
10
2.058594
20
0.024414
30
0.500000
11
2.041016
21
0.035156
31
0.500000
0
LINE
8
0
62
0
10
2.041016
20
0.035156
30
0.500000
11
2.025391
21
0.045898
31
0.500000
0
LINE
8
0
62
0
10
2.025391
20
0.045898
30
0.500000
11
2.010742
21
0.058594
31
0.500000
0
LINE
8
0
62
0
10
2.010742
20
0.058594
30
0.500000
11
1.998047
21
0.072266
31
0.500000
0
LINE
8
0
62
0
10
1.998047
20
0.072266
30
0.500000
11
1.986328
21
0.087891
31
0.500000
0
LINE
8
0
62
0
10
1.986328
20
0.087891
30
0.500000
11
1.975586
21
0.103516
31
0.500000
0
LINE
8
0
62
0
10
1.975586
20
0.103516
30
0.500000
11
1.966797
21
0.120117
31
0.500000
0
LINE
8
0
62
0
10
1.966797
20
0.120117
30
0.500000
11
1.958984
21
0.139648
31
0.500000
0
LINE
8
0
62
0
10
1.958984
20
0.139648
30
0.500000
11
1.953125
21
0.160156
31
0.500000
0
LINE
8
0
62
0
10
1.953125
20
0.160156
30
0.500000
11
1.947266
21
0.183594
31
0.500000
0
LINE
8
0
62
0
10
1.947266
20
0.183594
30
0.500000
11
1.942383
21
0.209961
31
0.500000
0
LINE
8
0
62
0
10
1.942383
20
0.209961
30
0.500000
11
1.939453
21
0.238281
31
0.500000
0
LINE
8
0
62
0
10
1.939453
20
0.238281
30
0.500000
11
1.936523
21
0.268555
31
0.500000
0
LINE
8
0
62
0
10
1.936523
20
0.268555
30
0.500000
11
1.935547
21
0.301758
31
0.500000
0
LINE
8
0
62
0
10
1.935547
20
0.301758
30
0.500000
11
1.934570
21
0.336914
31
0.500000
0
LINE
8
0
62
0
10
1.934570
20
0.336914
30
0.500000
11
1.934570
21
0.394531
31
0.500000
0
LINE
8
0
62
0
10
1.934570
20
0.394531
30
0.500000
11
2.197266
21
0.394531
31
0.500000
0
ENDSEC
0
EOF
