0
SECTION
2
HEADER
9
$EXTMIN
10
0.0546875
20
-0.0224609375
30
0.5
9
$EXTMAX
10
3.779296875
20
1.076171875
30
0.5
0
ENDSEC
0
SECTION
2
TABLES
0
TABLE
2
VPORT
0
VPORT
2
*ACTIVE
41
  1.000000
0
ENDTAB
0
TABLE
2
LAYER
0
LAYER
2
0
62
0
0
ENDTAB
0
ENDSEC
0
SECTION
2
BLOCKS
0
ENDSEC
0
SECTION
2
ENTITIES
0
LINE
8
0
62
0
10
0.329102
20
0.605469
30
0.500000
11
0.329102
21
0.873047
31
0.500000
0
LINE
8
0
62
0
10
0.329102
20
0.873047
30
0.500000
11
0.341797
21
0.873047
31
0.500000
0
LINE
8
0
62
0
10
0.341797
20
0.873047
30
0.500000
11
0.353516
21
0.872070
31
0.500000
0
LINE
8
0
62
0
10
0.353516
20
0.872070
30
0.500000
11
0.363281
21
0.871094
31
0.500000
0
LINE
8
0
62
0
10
0.363281
20
0.871094
30
0.500000
11
0.373047
21
0.869141
31
0.500000
0
LINE
8
0
62
0
10
0.373047
20
0.869141
30
0.500000
11
0.380859
21
0.866211
31
0.500000
0
LINE
8
0
62
0
10
0.380859
20
0.866211
30
0.500000
11
0.387695
21
0.864258
31
0.500000
0
LINE
8
0
62
0
10
0.387695
20
0.864258
30
0.500000
11
0.393555
21
0.860352
31
0.500000
0
LINE
8
0
62
0
10
0.393555
20
0.860352
30
0.500000
11
0.398438
21
0.856445
31
0.500000
0
LINE
8
0
62
0
10
0.398438
20
0.856445
30
0.500000
11
0.402344
21
0.852539
31
0.500000
0
LINE
8
0
62
0
10
0.402344
20
0.852539
30
0.500000
11
0.405273
21
0.846680
31
0.500000
0
LINE
8
0
62
0
10
0.405273
20
0.846680
30
0.500000
11
0.408203
21
0.838867
31
0.500000
0
LINE
8
0
62
0
10
0.408203
20
0.838867
30
0.500000
11
0.411133
21
0.831055
31
0.500000
0
LINE
8
0
62
0
10
0.411133
20
0.831055
30
0.500000
11
0.413086
21
0.821289
31
0.500000
0
LINE
8
0
62
0
10
0.413086
20
0.821289
30
0.500000
11
0.414063
21
0.811523
31
0.500000
0
LINE
8
0
62
0
10
0.414063
20
0.811523
30
0.500000
11
0.415039
21
0.799805
31
0.500000
0
LINE
8
0
62
0
10
0.415039
20
0.799805
30
0.500000
11
0.415039
21
0.786133
31
0.500000
0
LINE
8
0
62
0
10
0.415039
20
0.786133
30
0.500000
11
0.415039
21
0.700195
31
0.500000
0
LINE
8
0
62
0
10
0.415039
20
0.700195
30
0.500000
11
0.415039
21
0.686523
31
0.500000
0
LINE
8
0
62
0
10
0.415039
20
0.686523
30
0.500000
11
0.414063
21
0.672852
31
0.500000
0
LINE
8
0
62
0
10
0.414063
20
0.672852
30
0.500000
11
0.413086
21
0.662109
31
0.500000
0
LINE
8
0
62
0
10
0.413086
20
0.662109
30
0.500000
11
0.411133
21
0.651367
31
0.500000
0
LINE
8
0
62
0
10
0.411133
20
0.651367
30
0.500000
11
0.409180
21
0.642578
31
0.500000
0
LINE
8
0
62
0
10
0.409180
20
0.642578
30
0.500000
11
0.407227
21
0.634766
31
0.500000
0
LINE
8
0
62
0
10
0.407227
20
0.634766
30
0.500000
11
0.404297
21
0.627930
31
0.500000
0
LINE
8
0
62
0
10
0.404297
20
0.627930
30
0.500000
11
0.400391
21
0.623047
31
0.500000
0
LINE
8
0
62
0
10
0.400391
20
0.623047
30
0.500000
11
0.396484
21
0.619141
31
0.500000
0
LINE
8
0
62
0
10
0.396484
20
0.619141
30
0.500000
11
0.391602
21
0.615234
31
0.500000
0
LINE
8
0
62
0
10
0.391602
20
0.615234
30
0.500000
11
0.386719
21
0.611328
31
0.500000
0
LINE
8
0
62
0
10
0.386719
20
0.611328
30
0.500000
11
0.380859
21
0.609375
31
0.500000
0
LINE
8
0
62
0
10
0.380859
20
0.609375
30
0.500000
11
0.374023
21
0.607422
31
0.500000
0
LINE
8
0
62
0
10
0.374023
20
0.607422
30
0.500000
11
0.366211
21
0.605469
31
0.500000
0
LINE
8
0
62
0
10
0.366211
20
0.605469
30
0.500000
11
0.358398
21
0.604492
31
0.500000
0
LINE
8
0
62
0
10
0.358398
20
0.604492
30
0.500000
11
0.348633
21
0.604492
31
0.500000
0
LINE
8
0
62
0
10
0.348633
20
0.604492
30
0.500000
11
0.346680
21
0.604492
31
0.500000
0
LINE
8
0
62
0
10
0.346680
20
0.604492
30
0.500000
11
0.344727
21
0.604492
31
0.500000
0
LINE
8
0
62
0
10
0.344727
20
0.604492
30
0.500000
11
0.341797
21
0.604492
31
0.500000
0
LINE
8
0
62
0
10
0.341797
20
0.604492
30
0.500000
11
0.339844
21
0.604492
31
0.500000
0
LINE
8
0
62
0
10
0.339844
20
0.604492
30
0.500000
11
0.336914
21
0.604492
31
0.500000
0
LINE
8
0
62
0
10
0.336914
20
0.604492
30
0.500000
11
0.334961
21
0.604492
31
0.500000
0
LINE
8
0
62
0
10
0.334961
20
0.604492
30
0.500000
11
0.332031
21
0.605469
31
0.500000
0
LINE
8
0
62
0
10
0.332031
20
0.605469
30
0.500000
11
0.329102
21
0.605469
31
0.500000
0
LINE
8
0
62
0
10
0.330078
20
1.053711
30
0.500000
11
0.357422
21
1.053711
31
0.500000
0
LINE
8
0
62
0
10
0.357422
20
1.053711
30
0.500000
11
0.382813
21
1.052734
31
0.500000
0
LINE
8
0
62
0
10
0.382813
20
1.052734
30
0.500000
11
0.407227
21
1.050781
31
0.500000
0
LINE
8
0
62
0
10
0.407227
20
1.050781
30
0.500000
11
0.429688
21
1.048828
31
0.500000
0
LINE
8
0
62
0
10
0.429688
20
1.048828
30
0.500000
11
0.450195
21
1.046875
31
0.500000
0
LINE
8
0
62
0
10
0.450195
20
1.046875
30
0.500000
11
0.468750
21
1.043945
31
0.500000
0
LINE
8
0
62
0
10
0.468750
20
1.043945
30
0.500000
11
0.486328
21
1.040039
31
0.500000
0
LINE
8
0
62
0
10
0.486328
20
1.040039
30
0.500000
11
0.501953
21
1.036133
31
0.500000
0
LINE
8
0
62
0
10
0.501953
20
1.036133
30
0.500000
11
0.516602
21
1.031250
31
0.500000
0
LINE
8
0
62
0
10
0.516602
20
1.031250
30
0.500000
11
0.530273
21
1.026367
31
0.500000
0
LINE
8
0
62
0
10
0.530273
20
1.026367
30
0.500000
11
0.542969
21
1.020508
31
0.500000
0
LINE
8
0
62
0
10
0.542969
20
1.020508
30
0.500000
11
0.554688
21
1.014648
31
0.500000
0
LINE
8
0
62
0
10
0.554688
20
1.014648
30
0.500000
11
0.566406
21
1.007813
31
0.500000
0
LINE
8
0
62
0
10
0.566406
20
1.007813
30
0.500000
11
0.576172
21
1.000977
31
0.500000
0
LINE
8
0
62
0
10
0.576172
20
1.000977
30
0.500000
11
0.584961
21
0.993164
31
0.500000
0
LINE
8
0
62
0
10
0.584961
20
0.993164
30
0.500000
11
0.592773
21
0.985352
31
0.500000
0
LINE
8
0
62
0
10
0.592773
20
0.985352
30
0.500000
11
0.599609
21
0.976563
31
0.500000
0
LINE
8
0
62
0
10
0.599609
20
0.976563
30
0.500000
11
0.606445
21
0.967773
31
0.500000
0
LINE
8
0
62
0
10
0.606445
20
0.967773
30
0.500000
11
0.612305
21
0.958008
31
0.500000
0
LINE
8
0
62
0
10
0.612305
20
0.958008
30
0.500000
11
0.618164
21
0.948242
31
0.500000
0
LINE
8
0
62
0
10
0.618164
20
0.948242
30
0.500000
11
0.623047
21
0.938477
31
0.500000
0
LINE
8
0
62
0
10
0.623047
20
0.938477
30
0.500000
11
0.626953
21
0.927734
31
0.500000
0
LINE
8
0
62
0
10
0.626953
20
0.927734
30
0.500000
11
0.630859
21
0.916016
31
0.500000
0
LINE
8
0
62
0
10
0.630859
20
0.916016
30
0.500000
11
0.633789
21
0.905273
31
0.500000
0
LINE
8
0
62
0
10
0.633789
20
0.905273
30
0.500000
11
0.636719
21
0.892578
31
0.500000
0
LINE
8
0
62
0
10
0.636719
20
0.892578
30
0.500000
11
0.638672
21
0.877930
31
0.500000
0
LINE
8
0
62
0
10
0.638672
20
0.877930
30
0.500000
11
0.640625
21
0.862305
31
0.500000
0
LINE
8
0
62
0
10
0.640625
20
0.862305
30
0.500000
11
0.641602
21
0.844727
31
0.500000
0
LINE
8
0
62
0
10
0.641602
20
0.844727
30
0.500000
11
0.642578
21
0.825195
31
0.500000
0
LINE
8
0
62
0
10
0.642578
20
0.825195
30
0.500000
11
0.643555
21
0.804688
31
0.500000
0
LINE
8
0
62
0
10
0.643555
20
0.804688
30
0.500000
11
0.644531
21
0.782227
31
0.500000
0
LINE
8
0
62
0
10
0.644531
20
0.782227
30
0.500000
11
0.644531
21
0.758789
31
0.500000
0
LINE
8
0
62
0
10
0.644531
20
0.758789
30
0.500000
11
0.644531
21
0.666992
31
0.500000
0
LINE
8
0
62
0
10
0.644531
20
0.666992
30
0.500000
11
0.644531
21
0.642578
31
0.500000
0
LINE
8
0
62
0
10
0.644531
20
0.642578
30
0.500000
11
0.643555
21
0.620117
31
0.500000
0
LINE
8
0
62
0
10
0.643555
20
0.620117
30
0.500000
11
0.641602
21
0.598633
31
0.500000
0
LINE
8
0
62
0
10
0.641602
20
0.598633
30
0.500000
11
0.639648
21
0.579102
31
0.500000
0
LINE
8
0
62
0
10
0.639648
20
0.579102
30
0.500000
11
0.636719
21
0.561523
31
0.500000
0
LINE
8
0
62
0
10
0.636719
20
0.561523
30
0.500000
11
0.632813
21
0.545898
31
0.500000
0
LINE
8
0
62
0
10
0.632813
20
0.545898
30
0.500000
11
0.628906
21
0.532227
31
0.500000
0
LINE
8
0
62
0
10
0.628906
20
0.532227
30
0.500000
11
0.624023
21
0.519531
31
0.500000
0
LINE
8
0
62
0
10
0.624023
20
0.519531
30
0.500000
11
0.618164
21
0.508789
31
0.500000
0
LINE
8
0
62
0
10
0.618164
20
0.508789
30
0.500000
11
0.611328
21
0.498047
31
0.500000
0
LINE
8
0
62
0
10
0.611328
20
0.498047
30
0.500000
11
0.603516
21
0.488281
31
0.500000
0
LINE
8
0
62
0
10
0.603516
20
0.488281
30
0.500000
11
0.594727
21
0.478516
31
0.500000
0
LINE
8
0
62
0
10
0.594727
20
0.478516
30
0.500000
11
0.583984
21
0.469727
31
0.500000
0
LINE
8
0
62
0
10
0.583984
20
0.469727
30
0.500000
11
0.573242
21
0.461914
31
0.500000
0
LINE
8
0
62
0
10
0.573242
20
0.461914
30
0.500000
11
0.560547
21
0.455078
31
0.500000
0
LINE
8
0
62
0
10
0.560547
20
0.455078
30
0.500000
11
0.547852
21
0.448242
31
0.500000
0
LINE
8
0
62
0
10
0.547852
20
0.448242
30
0.500000
11
0.533203
21
0.442383
31
0.500000
0
LINE
8
0
62
0
10
0.533203
20
0.442383
30
0.500000
11
0.517578
21
0.437500
31
0.500000
0
LINE
8
0
62
0
10
0.517578
20
0.437500
30
0.500000
11
0.500977
21
0.433594
31
0.500000
0
LINE
8
0
62
0
10
0.500977
20
0.433594
30
0.500000
11
0.483398
21
0.429688
31
0.500000
0
LINE
8
0
62
0
10
0.483398
20
0.429688
30
0.500000
11
0.464844
21
0.427734
31
0.500000
0
LINE
8
0
62
0
10
0.464844
20
0.427734
30
0.500000
11
0.445313
21
0.425781
31
0.500000
0
LINE
8
0
62
0
10
0.445313
20
0.425781
30
0.500000
11
0.423828
21
0.423828
31
0.500000
0
LINE
8
0
62
0
10
0.423828
20
0.423828
30
0.500000
11
0.402344
21
0.423828
31
0.500000
0
LINE
8
0
62
0
10
0.402344
20
0.423828
30
0.500000
11
0.329102
21
0.423828
31
0.500000
0
LINE
8
0
62
0
10
0.329102
20
0.423828
30
0.500000
11
0.329102
21
0.000000
31
0.500000
0
LINE
8
0
62
0
10
0.329102
20
0.000000
30
0.500000
11
0.054688
21
0.000000
31
0.500000
0
LINE
8
0
62
0
10
0.054688
20
0.000000
30
0.500000
11
0.054688
21
1.053711
31
0.500000
0
LINE
8
0
62
0
10
0.054688
20
1.053711
30
0.500000
11
0.330078
21
1.053711
31
0.500000
0
LINE
8
0
62
0
10
0.702148
20
0.835938
30
0.500000
11
0.704102
21
0.861328
31
0.500000
0
LINE
8
0
62
0
10
0.704102
20
0.861328
30
0.500000
11
0.708008
21
0.884766
31
0.500000
0
LINE
8
0
62
0
10
0.708008
20
0.884766
30
0.500000
11
0.711914
21
0.906250
31
0.500000
0
LINE
8
0
62
0
10
0.711914
20
0.906250
30
0.500000
11
0.717773
21
0.924805
31
0.500000
0
LINE
8
0
62
0
10
0.717773
20
0.924805
30
0.500000
11
0.723633
21
0.942383
31
0.500000
0
LINE
8
0
62
0
10
0.723633
20
0.942383
30
0.500000
11
0.731445
21
0.957031
31
0.500000
0
LINE
8
0
62
0
10
0.731445
20
0.957031
30
0.500000
11
0.739258
21
0.970703
31
0.500000
0
LINE
8
0
62
0
10
0.739258
20
0.970703
30
0.500000
11
0.749023
21
0.983398
31
0.500000
0
LINE
8
0
62
0
10
0.749023
20
0.983398
30
0.500000
11
0.759766
21
0.995117
31
0.500000
0
LINE
8
0
62
0
10
0.759766
20
0.995117
30
0.500000
11
0.771484
21
1.006836
31
0.500000
0
LINE
8
0
62
0
10
0.771484
20
1.006836
30
0.500000
11
0.785156
21
1.017578
31
0.500000
0
LINE
8
0
62
0
10
0.785156
20
1.017578
30
0.500000
11
0.798828
21
1.027344
31
0.500000
0
LINE
8
0
62
0
10
0.798828
20
1.027344
30
0.500000
11
0.814453
21
1.036133
31
0.500000
0
LINE
8
0
62
0
10
0.814453
20
1.036133
30
0.500000
11
0.831055
21
1.044922
31
0.500000
0
LINE
8
0
62
0
10
0.831055
20
1.044922
30
0.500000
11
0.848633
21
1.051758
31
0.500000
0
LINE
8
0
62
0
10
0.848633
20
1.051758
30
0.500000
11
0.867188
21
1.058594
31
0.500000
0
LINE
8
0
62
0
10
0.867188
20
1.058594
30
0.500000
11
0.886719
21
1.063477
31
0.500000
0
LINE
8
0
62
0
10
0.886719
20
1.063477
30
0.500000
11
0.907227
21
1.068359
31
0.500000
0
LINE
8
0
62
0
10
0.907227
20
1.068359
30
0.500000
11
0.928711
21
1.071289
31
0.500000
0
LINE
8
0
62
0
10
0.928711
20
1.071289
30
0.500000
11
0.951172
21
1.074219
31
0.500000
0
LINE
8
0
62
0
10
0.951172
20
1.074219
30
0.500000
11
0.974609
21
1.075195
31
0.500000
0
LINE
8
0
62
0
10
0.974609
20
1.075195
30
0.500000
11
0.998047
21
1.076172
31
0.500000
0
LINE
8
0
62
0
10
0.998047
20
1.076172
30
0.500000
11
1.024414
21
1.075195
31
0.500000
0
LINE
8
0
62
0
10
1.024414
20
1.075195
30
0.500000
11
1.049805
21
1.074219
31
0.500000
0
LINE
8
0
62
0
10
1.049805
20
1.074219
30
0.500000
11
1.074219
21
1.071289
31
0.500000
0
LINE
8
0
62
0
10
1.074219
20
1.071289
30
0.500000
11
1.097656
21
1.067383
31
0.500000
0
LINE
8
0
62
0
10
1.097656
20
1.067383
30
0.500000
11
1.119141
21
1.062500
31
0.500000
0
LINE
8
0
62
0
10
1.119141
20
1.062500
30
0.500000
11
1.140625
21
1.056641
31
0.500000
0
LINE
8
0
62
0
10
1.140625
20
1.056641
30
0.500000
11
1.161133
21
1.049805
31
0.500000
0
LINE
8
0
62
0
10
1.161133
20
1.049805
30
0.500000
11
1.180664
21
1.041992
31
0.500000
0
LINE
8
0
62
0
10
1.180664
20
1.041992
30
0.500000
11
1.198242
21
1.033203
31
0.500000
0
LINE
8
0
62
0
10
1.198242
20
1.033203
30
0.500000
11
1.214844
21
1.023438
31
0.500000
0
LINE
8
0
62
0
10
1.214844
20
1.023438
30
0.500000
11
1.229492
21
1.013672
31
0.500000
0
LINE
8
0
62
0
10
1.229492
20
1.013672
30
0.500000
11
1.243164
21
1.002930
31
0.500000
0
LINE
8
0
62
0
10
1.243164
20
1.002930
30
0.500000
11
1.254883
21
0.991211
31
0.500000
0
LINE
8
0
62
0
10
1.254883
20
0.991211
30
0.500000
11
1.264648
21
0.979492
31
0.500000
0
LINE
8
0
62
0
10
1.264648
20
0.979492
30
0.500000
11
1.273438
21
0.967773
31
0.500000
0
LINE
8
0
62
0
10
1.273438
20
0.967773
30
0.500000
11
1.280273
21
0.955078
31
0.500000
0
LINE
8
0
62
0
10
1.280273
20
0.955078
30
0.500000
11
1.286133
21
0.940430
31
0.500000
0
LINE
8
0
62
0
10
1.286133
20
0.940430
30
0.500000
11
1.291016
21
0.923828
31
0.500000
0
LINE
8
0
62
0
10
1.291016
20
0.923828
30
0.500000
11
1.294922
21
0.905273
31
0.500000
0
LINE
8
0
62
0
10
1.294922
20
0.905273
30
0.500000
11
1.298828
21
0.883789
31
0.500000
0
LINE
8
0
62
0
10
1.298828
20
0.883789
30
0.500000
11
1.300781
21
0.860352
31
0.500000
0
LINE
8
0
62
0
10
1.300781
20
0.860352
30
0.500000
11
1.302734
21
0.834961
31
0.500000
0
LINE
8
0
62
0
10
1.302734
20
0.834961
30
0.500000
11
1.304688
21
0.807617
31
0.500000
0
LINE
8
0
62
0
10
1.304688
20
0.807617
30
0.500000
11
1.304688
21
0.777344
31
0.500000
0
LINE
8
0
62
0
10
1.304688
20
0.777344
30
0.500000
11
1.304688
21
0.735352
31
0.500000
0
LINE
8
0
62
0
10
1.304688
20
0.735352
30
0.500000
11
1.049805
21
0.735352
31
0.500000
0
LINE
8
0
62
0
10
1.049805
20
0.735352
30
0.500000
11
1.049805
21
0.813477
31
0.500000
0
LINE
8
0
62
0
10
1.049805
20
0.813477
30
0.500000
11
1.049805
21
0.826172
31
0.500000
0
LINE
8
0
62
0
10
1.049805
20
0.826172
30
0.500000
11
1.048828
21
0.837891
31
0.500000
0
LINE
8
0
62
0
10
1.048828
20
0.837891
30
0.500000
11
1.048828
21
0.848633
31
0.500000
0
LINE
8
0
62
0
10
1.048828
20
0.848633
30
0.500000
11
1.046875
21
0.857422
31
0.500000
0
LINE
8
0
62
0
10
1.046875
20
0.857422
30
0.500000
11
1.045898
21
0.866211
31
0.500000
0
LINE
8
0
62
0
10
1.045898
20
0.866211
30
0.500000
11
1.043945
21
0.873047
31
0.500000
0
LINE
8
0
62
0
10
1.043945
20
0.873047
30
0.500000
11
1.041992
21
0.877930
31
0.500000
0
LINE
8
0
62
0
10
1.041992
20
0.877930
30
0.500000
11
1.040039
21
0.882813
31
0.500000
0
LINE
8
0
62
0
10
1.040039
20
0.882813
30
0.500000
11
1.037109
21
0.885742
31
0.500000
0
LINE
8
0
62
0
10
1.037109
20
0.885742
30
0.500000
11
1.034180
21
0.888672
31
0.500000
0
LINE
8
0
62
0
10
1.034180
20
0.888672
30
0.500000
11
1.031250
21
0.891602
31
0.500000
0
LINE
8
0
62
0
10
1.031250
20
0.891602
30
0.500000
11
1.027344
21
0.893555
31
0.500000
0
LINE
8
0
62
0
10
1.027344
20
0.893555
30
0.500000
11
1.022461
21
0.895508
31
0.500000
0
LINE
8
0
62
0
10
1.022461
20
0.895508
30
0.500000
11
1.017578
21
0.896484
31
0.500000
0
LINE
8
0
62
0
10
1.017578
20
0.896484
30
0.500000
11
1.012695
21
0.897461
31
0.500000
0
LINE
8
0
62
0
10
1.012695
20
0.897461
30
0.500000
11
1.007813
21
0.897461
31
0.500000
0
LINE
8
0
62
0
10
1.007813
20
0.897461
30
0.500000
11
1.000977
21
0.897461
31
0.500000
0
LINE
8
0
62
0
10
1.000977
20
0.897461
30
0.500000
11
0.996094
21
0.896484
31
0.500000
0
LINE
8
0
62
0
10
0.996094
20
0.896484
30
0.500000
11
0.990234
21
0.894531
31
0.500000
0
LINE
8
0
62
0
10
0.990234
20
0.894531
30
0.500000
11
0.985352
21
0.892578
31
0.500000
0
LINE
8
0
62
0
10
0.985352
20
0.892578
30
0.500000
11
0.981445
21
0.889648
31
0.500000
0
LINE
8
0
62
0
10
0.981445
20
0.889648
30
0.500000
11
0.976563
21
0.885742
31
0.500000
0
LINE
8
0
62
0
10
0.976563
20
0.885742
30
0.500000
11
0.973633
21
0.881836
31
0.500000
0
LINE
8
0
62
0
10
0.973633
20
0.881836
30
0.500000
11
0.969727
21
0.876953
31
0.500000
0
LINE
8
0
62
0
10
0.969727
20
0.876953
30
0.500000
11
0.966797
21
0.872070
31
0.500000
0
LINE
8
0
62
0
10
0.966797
20
0.872070
30
0.500000
11
0.963867
21
0.866211
31
0.500000
0
LINE
8
0
62
0
10
0.963867
20
0.866211
30
0.500000
11
0.961914
21
0.859375
31
0.500000
0
LINE
8
0
62
0
10
0.961914
20
0.859375
30
0.500000
11
0.959961
21
0.851563
31
0.500000
0
LINE
8
0
62
0
10
0.959961
20
0.851563
30
0.500000
11
0.958984
21
0.843750
31
0.500000
0
LINE
8
0
62
0
10
0.958984
20
0.843750
30
0.500000
11
0.958008
21
0.834961
31
0.500000
0
LINE
8
0
62
0
10
0.958008
20
0.834961
30
0.500000
11
0.957031
21
0.826172
31
0.500000
0
LINE
8
0
62
0
10
0.957031
20
0.826172
30
0.500000
11
0.957031
21
0.816406
31
0.500000
0
LINE
8
0
62
0
10
0.957031
20
0.816406
30
0.500000
11
0.957031
21
0.803711
31
0.500000
0
LINE
8
0
62
0
10
0.957031
20
0.803711
30
0.500000
11
0.958008
21
0.791016
31
0.500000
0
LINE
8
0
62
0
10
0.958008
20
0.791016
30
0.500000
11
0.958984
21
0.780273
31
0.500000
0
LINE
8
0
62
0
10
0.958984
20
0.780273
30
0.500000
11
0.960938
21
0.769531
31
0.500000
0
LINE
8
0
62
0
10
0.960938
20
0.769531
30
0.500000
11
0.962891
21
0.760742
31
0.500000
0
LINE
8
0
62
0
10
0.962891
20
0.760742
30
0.500000
11
0.964844
21
0.751953
31
0.500000
0
LINE
8
0
62
0
10
0.964844
20
0.751953
30
0.500000
11
0.967773
21
0.744141
31
0.500000
0
LINE
8
0
62
0
10
0.967773
20
0.744141
30
0.500000
11
0.971680
21
0.736328
31
0.500000
0
LINE
8
0
62
0
10
0.971680
20
0.736328
30
0.500000
11
0.975586
21
0.729492
31
0.500000
0
LINE
8
0
62
0
10
0.975586
20
0.729492
30
0.500000
11
0.981445
21
0.722656
31
0.500000
0
LINE
8
0
62
0
10
0.981445
20
0.722656
30
0.500000
11
0.988281
21
0.714844
31
0.500000
0
LINE
8
0
62
0
10
0.988281
20
0.714844
30
0.500000
11
0.998047
21
0.707031
31
0.500000
0
LINE
8
0
62
0
10
0.998047
20
0.707031
30
0.500000
11
1.007813
21
0.699219
31
0.500000
0
LINE
8
0
62
0
10
1.007813
20
0.699219
30
0.500000
11
1.020508
21
0.690430
31
0.500000
0
LINE
8
0
62
0
10
1.020508
20
0.690430
30
0.500000
11
1.034180
21
0.681641
31
0.500000
0
LINE
8
0
62
0
10
1.034180
20
0.681641
30
0.500000
11
1.048828
21
0.671875
31
0.500000
0
LINE
8
0
62
0
10
1.048828
20
0.671875
30
0.500000
11
1.092773
21
0.645508
31
0.500000
0
LINE
8
0
62
0
10
1.092773
20
0.645508
30
0.500000
11
1.131836
21
0.620117
31
0.500000
0
LINE
8
0
62
0
10
1.131836
20
0.620117
30
0.500000
11
1.166992
21
0.595703
31
0.500000
0
LINE
8
0
62
0
10
1.166992
20
0.595703
30
0.500000
11
1.198242
21
0.573242
31
0.500000
0
LINE
8
0
62
0
10
1.198242
20
0.573242
30
0.500000
11
1.224609
21
0.551758
31
0.500000
0
LINE
8
0
62
0
10
1.224609
20
0.551758
30
0.500000
11
1.247070
21
0.531250
31
0.500000
0
LINE
8
0
62
0
10
1.247070
20
0.531250
30
0.500000
11
1.265625
21
0.511719
31
0.500000
0
LINE
8
0
62
0
10
1.265625
20
0.511719
30
0.500000
11
1.279297
21
0.494141
31
0.500000
0
LINE
8
0
62
0
10
1.279297
20
0.494141
30
0.500000
11
1.291016
21
0.474609
31
0.500000
0
LINE
8
0
62
0
10
1.291016
20
0.474609
30
0.500000
11
1.300781
21
0.454102
31
0.500000
0
LINE
8
0
62
0
10
1.300781
20
0.454102
30
0.500000
11
1.308594
21
0.429688
31
0.500000
0
LINE
8
0
62
0
10
1.308594
20
0.429688
30
0.500000
11
1.315430
21
0.402344
31
0.500000
0
LINE
8
0
62
0
10
1.315430
20
0.402344
30
0.500000
11
1.320313
21
0.373047
31
0.500000
0
LINE
8
0
62
0
10
1.320313
20
0.373047
30
0.500000
11
1.324219
21
0.341797
31
0.500000
0
LINE
8
0
62
0
10
1.324219
20
0.341797
30
0.500000
11
1.326172
21
0.306641
31
0.500000
0
LINE
8
0
62
0
10
1.326172
20
0.306641
30
0.500000
11
1.327148
21
0.269531
31
0.500000
0
LINE
8
0
62
0
10
1.327148
20
0.269531
30
0.500000
11
1.327148
21
0.242188
31
0.500000
0
LINE
8
0
62
0
10
1.327148
20
0.242188
30
0.500000
11
1.325195
21
0.216797
31
0.500000
0
LINE
8
0
62
0
10
1.325195
20
0.216797
30
0.500000
11
1.323242
21
0.193359
31
0.500000
0
LINE
8
0
62
0
10
1.323242
20
0.193359
30
0.500000
11
1.320313
21
0.170898
31
0.500000
0
LINE
8
0
62
0
10
1.320313
20
0.170898
30
0.500000
11
1.316406
21
0.151367
31
0.500000
0
LINE
8
0
62
0
10
1.316406
20
0.151367
30
0.500000
11
1.312500
21
0.133789
31
0.500000
0
LINE
8
0
62
0
10
1.312500
20
0.133789
30
0.500000
11
1.306641
21
0.117188
31
0.500000
0
LINE
8
0
62
0
10
1.306641
20
0.117188
30
0.500000
11
1.300781
21
0.103516
31
0.500000
0
LINE
8
0
62
0
10
1.300781
20
0.103516
30
0.500000
11
1.292969
21
0.089844
31
0.500000
0
LINE
8
0
62
0
10
1.292969
20
0.089844
30
0.500000
11
1.284180
21
0.077148
31
0.500000
0
LINE
8
0
62
0
10
1.284180
20
0.077148
30
0.500000
11
1.274414
21
0.065430
31
0.500000
0
LINE
8
0
62
0
10
1.274414
20
0.065430
30
0.500000
11
1.261719
21
0.053711
31
0.500000
0
LINE
8
0
62
0
10
1.261719
20
0.053711
30
0.500000
11
1.249023
21
0.042969
31
0.500000
0
LINE
8
0
62
0
10
1.249023
20
0.042969
30
0.500000
11
1.233398
21
0.033203
31
0.500000
0
LINE
8
0
62
0
10
1.233398
20
0.033203
30
0.500000
11
1.216797
21
0.023438
31
0.500000
0
LINE
8
0
62
0
10
1.216797
20
0.023438
30
0.500000
11
1.199219
21
0.013672
31
0.500000
0
LINE
8
0
62
0
10
1.199219
20
0.013672
30
0.500000
11
1.179688
21
0.004883
31
0.500000
0
LINE
8
0
62
0
10
1.179688
20
0.004883
30
0.500000
11
1.159180
21
-0.001953
31
0.500000
0
LINE
8
0
62
0
10
1.159180
20
-0.001953
30
0.500000
11
1.138672
21
-0.008789
31
0.500000
0
LINE
8
0
62
0
10
1.138672
20
-0.008789
30
0.500000
11
1.117188
21
-0.013672
31
0.500000
0
LINE
8
0
62
0
10
1.117188
20
-0.013672
30
0.500000
11
1.094727
21
-0.017578
31
0.500000
0
LINE
8
0
62
0
10
1.094727
20
-0.017578
30
0.500000
11
1.071289
21
-0.020508
31
0.500000
0
LINE
8
0
62
0
10
1.071289
20
-0.020508
30
0.500000
11
1.047852
21
-0.021484
31
0.500000
0
LINE
8
0
62
0
10
1.047852
20
-0.021484
30
0.500000
11
1.022461
21
-0.022461
31
0.500000
0
LINE
8
0
62
0
10
1.022461
20
-0.022461
30
0.500000
11
0.996094
21
-0.021484
31
0.500000
0
LINE
8
0
62
0
10
0.996094
20
-0.021484
30
0.500000
11
0.969727
21
-0.019531
31
0.500000
0
LINE
8
0
62
0
10
0.969727
20
-0.019531
30
0.500000
11
0.945313
21
-0.016602
31
0.500000
0
LINE
8
0
62
0
10
0.945313
20
-0.016602
30
0.500000
11
0.920898
21
-0.011719
31
0.500000
0
LINE
8
0
62
0
10
0.920898
20
-0.011719
30
0.500000
11
0.897461
21
-0.005859
31
0.500000
0
LINE
8
0
62
0
10
0.897461
20
-0.005859
30
0.500000
11
0.875977
21
0.000977
31
0.500000
0
LINE
8
0
62
0
10
0.875977
20
0.000977
30
0.500000
11
0.855469
21
0.009766
31
0.500000
0
LINE
8
0
62
0
10
0.855469
20
0.009766
30
0.500000
11
0.834961
21
0.019531
31
0.500000
0
LINE
8
0
62
0
10
0.834961
20
0.019531
30
0.500000
11
0.816406
21
0.030273
31
0.500000
0
LINE
8
0
62
0
10
0.816406
20
0.030273
30
0.500000
11
0.799805
21
0.041016
31
0.500000
0
LINE
8
0
62
0
10
0.799805
20
0.041016
30
0.500000
11
0.784180
21
0.053711
31
0.500000
0
LINE
8
0
62
0
10
0.784180
20
0.053711
30
0.500000
11
0.770508
21
0.066406
31
0.500000
0
LINE
8
0
62
0
10
0.770508
20
0.066406
30
0.500000
11
0.758789
21
0.080078
31
0.500000
0
LINE
8
0
62
0
10
0.758789
20
0.080078
30
0.500000
11
0.748047
21
0.094727
31
0.500000
0
LINE
8
0
62
0
10
0.748047
20
0.094727
30
0.500000
11
0.740234
21
0.109375
31
0.500000
0
LINE
8
0
62
0
10
0.740234
20
0.109375
30
0.500000
11
0.733398
21
0.125000
31
0.500000
0
LINE
8
0
62
0
10
0.733398
20
0.125000
30
0.500000
11
0.727539
21
0.142578
31
0.500000
0
LINE
8
0
62
0
10
0.727539
20
0.142578
30
0.500000
11
0.722656
21
0.161133
31
0.500000
0
LINE
8
0
62
0
10
0.722656
20
0.161133
30
0.500000
11
0.718750
21
0.180664
31
0.500000
0
LINE
8
0
62
0
10
0.718750
20
0.180664
30
0.500000
11
0.714844
21
0.203125
31
0.500000
0
LINE
8
0
62
0
10
0.714844
20
0.203125
30
0.500000
11
0.711914
21
0.226563
31
0.500000
0
LINE
8
0
62
0
10
0.711914
20
0.226563
30
0.500000
11
0.710938
21
0.251953
31
0.500000
0
LINE
8
0
62
0
10
0.710938
20
0.251953
30
0.500000
11
0.708984
21
0.279297
31
0.500000
0
LINE
8
0
62
0
10
0.708984
20
0.279297
30
0.500000
11
0.708984
21
0.307617
31
0.500000
0
LINE
8
0
62
0
10
0.708984
20
0.307617
30
0.500000
11
0.708984
21
0.376953
31
0.500000
0
LINE
8
0
62
0
10
0.708984
20
0.376953
30
0.500000
11
0.963867
21
0.376953
31
0.500000
0
LINE
8
0
62
0
10
0.963867
20
0.376953
30
0.500000
11
0.963867
21
0.249023
31
0.500000
0
LINE
8
0
62
0
10
0.963867
20
0.249023
30
0.500000
11
0.963867
21
0.235352
31
0.500000
0
LINE
8
0
62
0
10
0.963867
20
0.235352
30
0.500000
11
0.964844
21
0.222656
31
0.500000
0
LINE
8
0
62
0
10
0.964844
20
0.222656
30
0.500000
11
0.965820
21
0.210938
31
0.500000
0
LINE
8
0
62
0
10
0.965820
20
0.210938
30
0.500000
11
0.966797
21
0.200195
31
0.500000
0
LINE
8
0
62
0
10
0.966797
20
0.200195
30
0.500000
11
0.967773
21
0.191406
31
0.500000
0
LINE
8
0
62
0
10
0.967773
20
0.191406
30
0.500000
11
0.969727
21
0.184570
31
0.500000
0
LINE
8
0
62
0
10
0.969727
20
0.184570
30
0.500000
11
0.971680
21
0.177734
31
0.500000
0
LINE
8
0
62
0
10
0.971680
20
0.177734
30
0.500000
11
0.974609
21
0.172852
31
0.500000
0
LINE
8
0
62
0
10
0.974609
20
0.172852
30
0.500000
11
0.977539
21
0.168945
31
0.500000
0
LINE
8
0
62
0
10
0.977539
20
0.168945
30
0.500000
11
0.981445
21
0.166016
31
0.500000
0
LINE
8
0
62
0
10
0.981445
20
0.166016
30
0.500000
11
0.985352
21
0.163086
31
0.500000
0
LINE
8
0
62
0
10
0.985352
20
0.163086
30
0.500000
11
0.989258
21
0.160156
31
0.500000
0
LINE
8
0
62
0
10
0.989258
20
0.160156
30
0.500000
11
0.994141
21
0.158203
31
0.500000
0
LINE
8
0
62
0
10
0.994141
20
0.158203
30
0.500000
11
1.000000
21
0.157227
31
0.500000
0
LINE
8
0
62
0
10
1.000000
20
0.157227
30
0.500000
11
1.005859
21
0.156250
31
0.500000
0
LINE
8
0
62
0
10
1.005859
20
0.156250
30
0.500000
11
1.012695
21
0.156250
31
0.500000
0
LINE
8
0
62
0
10
1.012695
20
0.156250
30
0.500000
11
1.019531
21
0.156250
31
0.500000
0
LINE
8
0
62
0
10
1.019531
20
0.156250
30
0.500000
11
1.025391
21
0.157227
31
0.500000
0
LINE
8
0
62
0
10
1.025391
20
0.157227
30
0.500000
11
1.031250
21
0.159180
31
0.500000
0
LINE
8
0
62
0
10
1.031250
20
0.159180
30
0.500000
11
1.036133
21
0.161133
31
0.500000
0
LINE
8
0
62
0
10
1.036133
20
0.161133
30
0.500000
11
1.041016
21
0.165039
31
0.500000
0
LINE
8
0
62
0
10
1.041016
20
0.165039
30
0.500000
11
1.045898
21
0.167969
31
0.500000
0
LINE
8
0
62
0
10
1.045898
20
0.167969
30
0.500000
11
1.049805
21
0.172852
31
0.500000
0
LINE
8
0
62
0
10
1.049805
20
0.172852
30
0.500000
11
1.052734
21
0.177734
31
0.500000
0
LINE
8
0
62
0
10
1.052734
20
0.177734
30
0.500000
11
1.056641
21
0.183594
31
0.500000
0
LINE
8
0
62
0
10
1.056641
20
0.183594
30
0.500000
11
1.058594
21
0.189453
31
0.500000
0
LINE
8
0
62
0
10
1.058594
20
0.189453
30
0.500000
11
1.061523
21
0.196289
31
0.500000
0
LINE
8
0
62
0
10
1.061523
20
0.196289
30
0.500000
11
1.063477
21
0.204102
31
0.500000
0
LINE
8
0
62
0
10
1.063477
20
0.204102
30
0.500000
11
1.064453
21
0.212891
31
0.500000
0
LINE
8
0
62
0
10
1.064453
20
0.212891
30
0.500000
11
1.065430
21
0.221680
31
0.500000
0
LINE
8
0
62
0
10
1.065430
20
0.221680
30
0.500000
11
1.066406
21
0.231445
31
0.500000
0
LINE
8
0
62
0
10
1.066406
20
0.231445
30
0.500000
11
1.066406
21
0.241211
31
0.500000
0
LINE
8
0
62
0
10
1.066406
20
0.241211
30
0.500000
11
1.066406
21
0.263672
31
0.500000
0
LINE
8
0
62
0
10
1.066406
20
0.263672
30
0.500000
11
1.064453
21
0.284180
31
0.500000
0
LINE
8
0
62
0
10
1.064453
20
0.284180
30
0.500000
11
1.062500
21
0.301758
31
0.500000
0
LINE
8
0
62
0
10
1.062500
20
0.301758
30
0.500000
11
1.059570
21
0.318359
31
0.500000
0
LINE
8
0
62
0
10
1.059570
20
0.318359
30
0.500000
11
1.056641
21
0.333008
31
0.500000
0
LINE
8
0
62
0
10
1.056641
20
0.333008
30
0.500000
11
1.051758
21
0.344727
31
0.500000
0
LINE
8
0
62
0
10
1.051758
20
0.344727
30
0.500000
11
1.046875
21
0.355469
31
0.500000
0
LINE
8
0
62
0
10
1.046875
20
0.355469
30
0.500000
11
1.041016
21
0.363281
31
0.500000
0
LINE
8
0
62
0
10
1.041016
20
0.363281
30
0.500000
11
1.033203
21
0.371094
31
0.500000
0
LINE
8
0
62
0
10
1.033203
20
0.371094
30
0.500000
11
1.023438
21
0.379883
31
0.500000
0
LINE
8
0
62
0
10
1.023438
20
0.379883
30
0.500000
11
1.010742
21
0.389648
31
0.500000
0
LINE
8
0
62
0
10
1.010742
20
0.389648
30
0.500000
11
0.996094
21
0.401367
31
0.500000
0
LINE
8
0
62
0
10
0.996094
20
0.401367
30
0.500000
11
0.978516
21
0.414063
31
0.500000
0
LINE
8
0
62
0
10
0.978516
20
0.414063
30
0.500000
11
0.958984
21
0.427734
31
0.500000
0
LINE
8
0
62
0
10
0.958984
20
0.427734
30
0.500000
11
0.936523
21
0.442383
31
0.500000
0
LINE
8
0
62
0
10
0.936523
20
0.442383
30
0.500000
11
0.913086
21
0.458984
31
0.500000
0
LINE
8
0
62
0
10
0.913086
20
0.458984
30
0.500000
11
0.887695
21
0.475586
31
0.500000
0
LINE
8
0
62
0
10
0.887695
20
0.475586
30
0.500000
11
0.866211
21
0.490234
31
0.500000
0
LINE
8
0
62
0
10
0.866211
20
0.490234
30
0.500000
11
0.845703
21
0.504883
31
0.500000
0
LINE
8
0
62
0
10
0.845703
20
0.504883
30
0.500000
11
0.827148
21
0.517578
31
0.500000
0
LINE
8
0
62
0
10
0.827148
20
0.517578
30
0.500000
11
0.811523
21
0.529297
31
0.500000
0
LINE
8
0
62
0
10
0.811523
20
0.529297
30
0.500000
11
0.797852
21
0.540039
31
0.500000
0
LINE
8
0
62
0
10
0.797852
20
0.540039
30
0.500000
11
0.786133
21
0.548828
31
0.500000
0
LINE
8
0
62
0
10
0.786133
20
0.548828
30
0.500000
11
0.777344
21
0.557617
31
0.500000
0
LINE
8
0
62
0
10
0.777344
20
0.557617
30
0.500000
11
0.768555
21
0.565430
31
0.500000
0
LINE
8
0
62
0
10
0.768555
20
0.565430
30
0.500000
11
0.760742
21
0.574219
31
0.500000
0
LINE
8
0
62
0
10
0.760742
20
0.574219
30
0.500000
11
0.753906
21
0.583984
31
0.500000
0
LINE
8
0
62
0
10
0.753906
20
0.583984
30
0.500000
11
0.747070
21
0.593750
31
0.500000
0
LINE
8
0
62
0
10
0.747070
20
0.593750
30
0.500000
11
0.740234
21
0.604492
31
0.500000
0
LINE
8
0
62
0
10
0.740234
20
0.604492
30
0.500000
11
0.733398
21
0.616211
31
0.500000
0
LINE
8
0
62
0
10
0.733398
20
0.616211
30
0.500000
11
0.727539
21
0.628906
31
0.500000
0
LINE
8
0
62
0
10
0.727539
20
0.628906
30
0.500000
11
0.721680
21
0.641602
31
0.500000
0
LINE
8
0
62
0
10
0.721680
20
0.641602
30
0.500000
11
0.716797
21
0.656250
31
0.500000
0
LINE
8
0
62
0
10
0.716797
20
0.656250
30
0.500000
11
0.712891
21
0.670898
31
0.500000
0
LINE
8
0
62
0
10
0.712891
20
0.670898
30
0.500000
11
0.708984
21
0.686523
31
0.500000
0
LINE
8
0
62
0
10
0.708984
20
0.686523
30
0.500000
11
0.706055
21
0.703125
31
0.500000
0
LINE
8
0
62
0
10
0.706055
20
0.703125
30
0.500000
11
0.703125
21
0.720703
31
0.500000
0
LINE
8
0
62
0
10
0.703125
20
0.720703
30
0.500000
11
0.701172
21
0.740234
31
0.500000
0
LINE
8
0
62
0
10
0.701172
20
0.740234
30
0.500000
11
0.700195
21
0.759766
31
0.500000
0
LINE
8
0
62
0
10
0.700195
20
0.759766
30
0.500000
11
0.700195
21
0.780273
31
0.500000
0
LINE
8
0
62
0
10
0.700195
20
0.780273
30
0.500000
11
0.700195
21
0.809570
31
0.500000
0
LINE
8
0
62
0
10
0.700195
20
0.809570
30
0.500000
11
0.702148
21
0.835938
31
0.500000
0
LINE
8
0
62
0
10
1.366211
20
0.842773
30
0.500000
11
1.366211
21
1.053711
31
0.500000
0
LINE
8
0
62
0
10
1.366211
20
1.053711
30
0.500000
11
1.964844
21
1.053711
31
0.500000
0
LINE
8
0
62
0
10
1.964844
20
1.053711
30
0.500000
11
1.964844
21
0.842773
31
0.500000
0
LINE
8
0
62
0
10
1.964844
20
0.842773
30
0.500000
11
1.802734
21
0.842773
31
0.500000
0
LINE
8
0
62
0
10
1.802734
20
0.842773
30
0.500000
11
1.802734
21
0.000000
31
0.500000
0
LINE
8
0
62
0
10
1.802734
20
0.000000
30
0.500000
11
1.528320
21
0.000000
31
0.500000
0
LINE
8
0
62
0
10
1.528320
20
0.000000
30
0.500000
11
1.528320
21
0.842773
31
0.500000
0
LINE
8
0
62
0
10
1.528320
20
0.842773
30
0.500000
11
1.366211
21
0.842773
31
0.500000
0
LINE
8
0
62
0
10
2.020508
20
0.328125
30
0.500000
11
2.019531
21
0.361328
31
0.500000
0
LINE
8
0
62
0
10
2.019531
20
0.361328
30
0.500000
11
2.019531
21
0.397461
31
0.500000
0
LINE
8
0
62
0
10
2.019531
20
0.397461
30
0.500000
11
2.019531
21
0.436523
31
0.500000
0
LINE
8
0
62
0
10
2.019531
20
0.436523
30
0.500000
11
2.019531
21
0.617188
31
0.500000
0
LINE
8
0
62
0
10
2.019531
20
0.617188
30
0.500000
11
2.019531
21
0.655273
31
0.500000
0
LINE
8
0
62
0
10
2.019531
20
0.655273
30
0.500000
11
2.019531
21
0.690430
31
0.500000
0
LINE
8
0
62
0
10
2.019531
20
0.690430
30
0.500000
11
2.020508
21
0.723633
31
0.500000
0
LINE
8
0
62
0
10
2.020508
20
0.723633
30
0.500000
11
2.021484
21
0.752930
31
0.500000
0
LINE
8
0
62
0
10
2.021484
20
0.752930
30
0.500000
11
2.022461
21
0.779297
31
0.500000
0
LINE
8
0
62
0
10
2.022461
20
0.779297
30
0.500000
11
2.023438
21
0.802734
31
0.500000
0
LINE
8
0
62
0
10
2.023438
20
0.802734
30
0.500000
11
2.025391
21
0.824219
31
0.500000
0
LINE
8
0
62
0
10
2.025391
20
0.824219
30
0.500000
11
2.027344
21
0.841797
31
0.500000
0
LINE
8
0
62
0
10
2.027344
20
0.841797
30
0.500000
11
2.029297
21
0.858398
31
0.500000
0
LINE
8
0
62
0
10
2.029297
20
0.858398
30
0.500000
11
2.033203
21
0.874023
31
0.500000
0
LINE
8
0
62
0
10
2.033203
20
0.874023
30
0.500000
11
2.037109
21
0.889648
31
0.500000
0
LINE
8
0
62
0
10
2.037109
20
0.889648
30
0.500000
11
2.041992
21
0.905273
31
0.500000
0
LINE
8
0
62
0
10
2.041992
20
0.905273
30
0.500000
11
2.048828
21
0.919922
31
0.500000
0
LINE
8
0
62
0
10
2.048828
20
0.919922
30
0.500000
11
2.056641
21
0.934570
31
0.500000
0
LINE
8
0
62
0
10
2.056641
20
0.934570
30
0.500000
11
2.064453
21
0.949219
31
0.500000
0
LINE
8
0
62
0
10
2.064453
20
0.949219
30
0.500000
11
2.074219
21
0.962891
31
0.500000
0
LINE
8
0
62
0
10
2.074219
20
0.962891
30
0.500000
11
2.083984
21
0.976563
31
0.500000
0
LINE
8
0
62
0
10
2.083984
20
0.976563
30
0.500000
11
2.095703
21
0.988281
31
0.500000
0
LINE
8
0
62
0
10
2.095703
20
0.988281
30
0.500000
11
2.107422
21
1.000000
31
0.500000
0
LINE
8
0
62
0
10
2.107422
20
1.000000
30
0.500000
11
2.120117
21
1.010742
31
0.500000
0
LINE
8
0
62
0
10
2.120117
20
1.010742
30
0.500000
11
2.133789
21
1.021484
31
0.500000
0
LINE
8
0
62
0
10
2.133789
20
1.021484
30
0.500000
11
2.148438
21
1.030273
31
0.500000
0
LINE
8
0
62
0
10
2.148438
20
1.030273
30
0.500000
11
2.164063
21
1.039063
31
0.500000
0
LINE
8
0
62
0
10
2.164063
20
1.039063
30
0.500000
11
2.180664
21
1.046875
31
0.500000
0
LINE
8
0
62
0
10
2.180664
20
1.046875
30
0.500000
11
2.197266
21
1.053711
31
0.500000
0
LINE
8
0
62
0
10
2.197266
20
1.053711
30
0.500000
11
2.214844
21
1.059570
31
0.500000
0
LINE
8
0
62
0
10
2.214844
20
1.059570
30
0.500000
11
2.233398
21
1.064453
31
0.500000
0
LINE
8
0
62
0
10
2.233398
20
1.064453
30
0.500000
11
2.252930
21
1.068359
31
0.500000
0
LINE
8
0
62
0
10
2.252930
20
1.068359
30
0.500000
11
2.272461
21
1.072266
31
0.500000
0
LINE
8
0
62
0
10
2.272461
20
1.072266
30
0.500000
11
2.292969
21
1.074219
31
0.500000
0
LINE
8
0
62
0
10
2.292969
20
1.074219
30
0.500000
11
2.314453
21
1.076172
31
0.500000
0
LINE
8
0
62
0
10
2.314453
20
1.076172
30
0.500000
11
2.335938
21
1.076172
31
0.500000
0
LINE
8
0
62
0
10
2.335938
20
1.076172
30
0.500000
11
2.357422
21
1.076172
31
0.500000
0
LINE
8
0
62
0
10
2.357422
20
1.076172
30
0.500000
11
2.377930
21
1.074219
31
0.500000
0
LINE
8
0
62
0
10
2.377930
20
1.074219
30
0.500000
11
2.397461
21
1.072266
31
0.500000
0
LINE
8
0
62
0
10
2.397461
20
1.072266
30
0.500000
11
2.416992
21
1.069336
31
0.500000
0
LINE
8
0
62
0
10
2.416992
20
1.069336
30
0.500000
11
2.435547
21
1.065430
31
0.500000
0
LINE
8
0
62
0
10
2.435547
20
1.065430
30
0.500000
11
2.454102
21
1.060547
31
0.500000
0
LINE
8
0
62
0
10
2.454102
20
1.060547
30
0.500000
11
2.471680
21
1.054688
31
0.500000
0
LINE
8
0
62
0
10
2.471680
20
1.054688
30
0.500000
11
2.488281
21
1.048828
31
0.500000
0
LINE
8
0
62
0
10
2.488281
20
1.048828
30
0.500000
11
2.504883
21
1.041016
31
0.500000
0
LINE
8
0
62
0
10
2.504883
20
1.041016
30
0.500000
11
2.520508
21
1.033203
31
0.500000
0
LINE
8
0
62
0
10
2.520508
20
1.033203
30
0.500000
11
2.535156
21
1.023438
31
0.500000
0
LINE
8
0
62
0
10
2.535156
20
1.023438
30
0.500000
11
2.548828
21
1.013672
31
0.500000
0
LINE
8
0
62
0
10
2.548828
20
1.013672
30
0.500000
11
2.562500
21
1.002930
31
0.500000
0
LINE
8
0
62
0
10
2.562500
20
1.002930
30
0.500000
11
2.574219
21
0.991211
31
0.500000
0
LINE
8
0
62
0
10
2.574219
20
0.991211
30
0.500000
11
2.585938
21
0.978516
31
0.500000
0
LINE
8
0
62
0
10
2.585938
20
0.978516
30
0.500000
11
2.596680
21
0.965820
31
0.500000
0
LINE
8
0
62
0
10
2.596680
20
0.965820
30
0.500000
11
2.606445
21
0.951172
31
0.500000
0
LINE
8
0
62
0
10
2.606445
20
0.951172
30
0.500000
11
2.615234
21
0.937500
31
0.500000
0
LINE
8
0
62
0
10
2.615234
20
0.937500
30
0.500000
11
2.623047
21
0.922852
31
0.500000
0
LINE
8
0
62
0
10
2.623047
20
0.922852
30
0.500000
11
2.629883
21
0.907227
31
0.500000
0
LINE
8
0
62
0
10
2.629883
20
0.907227
30
0.500000
11
2.634766
21
0.892578
31
0.500000
0
LINE
8
0
62
0
10
2.634766
20
0.892578
30
0.500000
11
2.639648
21
0.876953
31
0.500000
0
LINE
8
0
62
0
10
2.639648
20
0.876953
30
0.500000
11
2.642578
21
0.861328
31
0.500000
0
LINE
8
0
62
0
10
2.642578
20
0.861328
30
0.500000
11
2.645508
21
0.844727
31
0.500000
0
LINE
8
0
62
0
10
2.645508
20
0.844727
30
0.500000
11
2.647461
21
0.827148
31
0.500000
0
LINE
8
0
62
0
10
2.647461
20
0.827148
30
0.500000
11
2.649414
21
0.806641
31
0.500000
0
LINE
8
0
62
0
10
2.649414
20
0.806641
30
0.500000
11
2.650391
21
0.782227
31
0.500000
0
LINE
8
0
62
0
10
2.650391
20
0.782227
30
0.500000
11
2.651367
21
0.755859
31
0.500000
0
LINE
8
0
62
0
10
2.651367
20
0.755859
30
0.500000
11
2.652344
21
0.725586
31
0.500000
0
LINE
8
0
62
0
10
2.652344
20
0.725586
30
0.500000
11
2.653320
21
0.692383
31
0.500000
0
LINE
8
0
62
0
10
2.653320
20
0.692383
30
0.500000
11
2.653320
21
0.656250
31
0.500000
0
LINE
8
0
62
0
10
2.653320
20
0.656250
30
0.500000
11
2.653320
21
0.617188
31
0.500000
0
LINE
8
0
62
0
10
2.653320
20
0.617188
30
0.500000
11
2.653320
21
0.436523
31
0.500000
0
LINE
8
0
62
0
10
2.653320
20
0.436523
30
0.500000
11
2.653320
21
0.398438
31
0.500000
0
LINE
8
0
62
0
10
2.653320
20
0.398438
30
0.500000
11
2.653320
21
0.363281
31
0.500000
0
LINE
8
0
62
0
10
2.653320
20
0.363281
30
0.500000
11
2.652344
21
0.330078
31
0.500000
0
LINE
8
0
62
0
10
2.652344
20
0.330078
30
0.500000
11
2.651367
21
0.300781
31
0.500000
0
LINE
8
0
62
0
10
2.651367
20
0.300781
30
0.500000
11
2.650391
21
0.274414
31
0.500000
0
LINE
8
0
62
0
10
2.650391
20
0.274414
30
0.500000
11
2.649414
21
0.250977
31
0.500000
0
LINE
8
0
62
0
10
2.649414
20
0.250977
30
0.500000
11
2.647461
21
0.229492
31
0.500000
0
LINE
8
0
62
0
10
2.647461
20
0.229492
30
0.500000
11
2.645508
21
0.211914
31
0.500000
0
LINE
8
0
62
0
10
2.645508
20
0.211914
30
0.500000
11
2.643555
21
0.195313
31
0.500000
0
LINE
8
0
62
0
10
2.643555
20
0.195313
30
0.500000
11
2.639648
21
0.179688
31
0.500000
0
LINE
8
0
62
0
10
2.639648
20
0.179688
30
0.500000
11
2.635742
21
0.164063
31
0.500000
0
LINE
8
0
62
0
10
2.635742
20
0.164063
30
0.500000
11
2.630859
21
0.148438
31
0.500000
0
LINE
8
0
62
0
10
2.630859
20
0.148438
30
0.500000
11
2.624023
21
0.133789
31
0.500000
0
LINE
8
0
62
0
10
2.624023
20
0.133789
30
0.500000
11
2.616211
21
0.119141
31
0.500000
0
LINE
8
0
62
0
10
2.616211
20
0.119141
30
0.500000
11
2.608398
21
0.104492
31
0.500000
0
LINE
8
0
62
0
10
2.608398
20
0.104492
30
0.500000
11
2.598633
21
0.090820
31
0.500000
0
LINE
8
0
62
0
10
2.598633
20
0.090820
30
0.500000
11
2.588867
21
0.077148
31
0.500000
0
LINE
8
0
62
0
10
2.588867
20
0.077148
30
0.500000
11
2.577148
21
0.065430
31
0.500000
0
LINE
8
0
62
0
10
2.577148
20
0.065430
30
0.500000
11
2.565430
21
0.053711
31
0.500000
0
LINE
8
0
62
0
10
2.565430
20
0.053711
30
0.500000
11
2.552734
21
0.042969
31
0.500000
0
LINE
8
0
62
0
10
2.552734
20
0.042969
30
0.500000
11
2.539063
21
0.032227
31
0.500000
0
LINE
8
0
62
0
10
2.539063
20
0.032227
30
0.500000
11
2.524414
21
0.023438
31
0.500000
0
LINE
8
0
62
0
10
2.524414
20
0.023438
30
0.500000
11
2.508789
21
0.014648
31
0.500000
0
LINE
8
0
62
0
10
2.508789
20
0.014648
30
0.500000
11
2.492188
21
0.006836
31
0.500000
0
LINE
8
0
62
0
10
2.492188
20
0.006836
30
0.500000
11
2.475586
21
0.000000
31
0.500000
0
LINE
8
0
62
0
10
2.475586
20
0.000000
30
0.500000
11
2.458008
21
-0.005859
31
0.500000
0
LINE
8
0
62
0
10
2.458008
20
-0.005859
30
0.500000
11
2.439453
21
-0.010742
31
0.500000
0
LINE
8
0
62
0
10
2.439453
20
-0.010742
30
0.500000
11
2.419922
21
-0.014648
31
0.500000
0
LINE
8
0
62
0
10
2.419922
20
-0.014648
30
0.500000
11
2.400391
21
-0.018555
31
0.500000
0
LINE
8
0
62
0
10
2.400391
20
-0.018555
30
0.500000
11
2.379883
21
-0.020508
31
0.500000
0
LINE
8
0
62
0
10
2.379883
20
-0.020508
30
0.500000
11
2.358398
21
-0.022461
31
0.500000
0
LINE
8
0
62
0
10
2.358398
20
-0.022461
30
0.500000
11
2.335938
21
-0.022461
31
0.500000
0
LINE
8
0
62
0
10
2.335938
20
-0.022461
30
0.500000
11
2.315430
21
-0.022461
31
0.500000
0
LINE
8
0
62
0
10
2.315430
20
-0.022461
30
0.500000
11
2.294922
21
-0.020508
31
0.500000
0
LINE
8
0
62
0
10
2.294922
20
-0.020508
30
0.500000
11
2.275391
21
-0.018555
31
0.500000
0
LINE
8
0
62
0
10
2.275391
20
-0.018555
30
0.500000
11
2.255859
21
-0.015625
31
0.500000
0
LINE
8
0
62
0
10
2.255859
20
-0.015625
30
0.500000
11
2.237305
21
-0.011719
31
0.500000
0
LINE
8
0
62
0
10
2.237305
20
-0.011719
30
0.500000
11
2.218750
21
-0.006836
31
0.500000
0
LINE
8
0
62
0
10
2.218750
20
-0.006836
30
0.500000
11
2.201172
21
-0.000977
31
0.500000
0
LINE
8
0
62
0
10
2.201172
20
-0.000977
30
0.500000
11
2.184570
21
0.004883
31
0.500000
0
LINE
8
0
62
0
10
2.184570
20
0.004883
30
0.500000
11
2.167969
21
0.012695
31
0.500000
0
LINE
8
0
62
0
10
2.167969
20
0.012695
30
0.500000
11
2.152344
21
0.020508
31
0.500000
0
LINE
8
0
62
0
10
2.152344
20
0.020508
30
0.500000
11
2.137695
21
0.030273
31
0.500000
0
LINE
8
0
62
0
10
2.137695
20
0.030273
30
0.500000
11
2.124023
21
0.040039
31
0.500000
0
LINE
8
0
62
0
10
2.124023
20
0.040039
30
0.500000
11
2.110352
21
0.050781
31
0.500000
0
LINE
8
0
62
0
10
2.110352
20
0.050781
30
0.500000
11
2.098633
21
0.062500
31
0.500000
0
LINE
8
0
62
0
10
2.098633
20
0.062500
30
0.500000
11
2.086914
21
0.075195
31
0.500000
0
LINE
8
0
62
0
10
2.086914
20
0.075195
30
0.500000
11
2.076172
21
0.087891
31
0.500000
0
LINE
8
0
62
0
10
2.076172
20
0.087891
30
0.500000
11
2.066406
21
0.102539
31
0.500000
0
LINE
8
0
62
0
10
2.066406
20
0.102539
30
0.500000
11
2.057617
21
0.116211
31
0.500000
0
LINE
8
0
62
0
10
2.057617
20
0.116211
30
0.500000
11
2.049805
21
0.130859
31
0.500000
0
LINE
8
0
62
0
10
2.049805
20
0.130859
30
0.500000
11
2.042969
21
0.146484
31
0.500000
0
LINE
8
0
62
0
10
2.042969
20
0.146484
30
0.500000
11
2.038086
21
0.161133
31
0.500000
0
LINE
8
0
62
0
10
2.038086
20
0.161133
30
0.500000
11
2.033203
21
0.176758
31
0.500000
0
LINE
8
0
62
0
10
2.033203
20
0.176758
30
0.500000
11
2.030273
21
0.192383
31
0.500000
0
LINE
8
0
62
0
10
2.030273
20
0.192383
30
0.500000
11
2.027344
21
0.208984
31
0.500000
0
LINE
8
0
62
0
10
2.027344
20
0.208984
30
0.500000
11
2.025391
21
0.226563
31
0.500000
0
LINE
8
0
62
0
10
2.025391
20
0.226563
30
0.500000
11
2.023438
21
0.247070
31
0.500000
0
LINE
8
0
62
0
10
2.023438
20
0.247070
30
0.500000
11
2.022461
21
0.271484
31
0.500000
0
LINE
8
0
62
0
10
2.022461
20
0.271484
30
0.500000
11
2.021484
21
0.297852
31
0.500000
0
LINE
8
0
62
0
10
2.021484
20
0.297852
30
0.500000
11
2.020508
21
0.328125
31
0.500000
0
LINE
8
0
62
0
10
2.294922
20
0.819336
30
0.500000
11
2.295898
21
0.834961
31
0.500000
0
LINE
8
0
62
0
10
2.295898
20
0.834961
30
0.500000
11
2.296875
21
0.847656
31
0.500000
0
LINE
8
0
62
0
10
2.296875
20
0.847656
30
0.500000
11
2.298828
21
0.859375
31
0.500000
0
LINE
8
0
62
0
10
2.298828
20
0.859375
30
0.500000
11
2.299805
21
0.868164
31
0.500000
0
LINE
8
0
62
0
10
2.299805
20
0.868164
30
0.500000
11
2.302734
21
0.875977
31
0.500000
0
LINE
8
0
62
0
10
2.302734
20
0.875977
30
0.500000
11
2.305664
21
0.880859
31
0.500000
0
LINE
8
0
62
0
10
2.305664
20
0.880859
30
0.500000
11
2.308594
21
0.884766
31
0.500000
0
LINE
8
0
62
0
10
2.308594
20
0.884766
30
0.500000
11
2.311523
21
0.887695
31
0.500000
0
LINE
8
0
62
0
10
2.311523
20
0.887695
30
0.500000
11
2.315430
21
0.890625
31
0.500000
0
LINE
8
0
62
0
10
2.315430
20
0.890625
30
0.500000
11
2.319336
21
0.893555
31
0.500000
0
LINE
8
0
62
0
10
2.319336
20
0.893555
30
0.500000
11
2.323242
21
0.895508
31
0.500000
0
LINE
8
0
62
0
10
2.323242
20
0.895508
30
0.500000
11
2.328125
21
0.896484
31
0.500000
0
LINE
8
0
62
0
10
2.328125
20
0.896484
30
0.500000
11
2.333008
21
0.897461
31
0.500000
0
LINE
8
0
62
0
10
2.333008
20
0.897461
30
0.500000
11
2.337891
21
0.897461
31
0.500000
0
LINE
8
0
62
0
10
2.337891
20
0.897461
30
0.500000
11
2.343750
21
0.897461
31
0.500000
0
LINE
8
0
62
0
10
2.343750
20
0.897461
30
0.500000
11
2.349609
21
0.896484
31
0.500000
0
LINE
8
0
62
0
10
2.349609
20
0.896484
30
0.500000
11
2.354492
21
0.894531
31
0.500000
0
LINE
8
0
62
0
10
2.354492
20
0.894531
30
0.500000
11
2.358398
21
0.892578
31
0.500000
0
LINE
8
0
62
0
10
2.358398
20
0.892578
30
0.500000
11
2.362305
21
0.889648
31
0.500000
0
LINE
8
0
62
0
10
2.362305
20
0.889648
30
0.500000
11
2.366211
21
0.885742
31
0.500000
0
LINE
8
0
62
0
10
2.366211
20
0.885742
30
0.500000
11
2.368164
21
0.881836
31
0.500000
0
LINE
8
0
62
0
10
2.368164
20
0.881836
30
0.500000
11
2.371094
21
0.876953
31
0.500000
0
LINE
8
0
62
0
10
2.371094
20
0.876953
30
0.500000
11
2.373047
21
0.871094
31
0.500000
0
LINE
8
0
62
0
10
2.373047
20
0.871094
30
0.500000
11
2.374023
21
0.863281
31
0.500000
0
LINE
8
0
62
0
10
2.374023
20
0.863281
30
0.500000
11
2.375977
21
0.854492
31
0.500000
0
LINE
8
0
62
0
10
2.375977
20
0.854492
30
0.500000
11
2.376953
21
0.842773
31
0.500000
0
LINE
8
0
62
0
10
2.376953
20
0.842773
30
0.500000
11
2.377930
21
0.831055
31
0.500000
0
LINE
8
0
62
0
10
2.377930
20
0.831055
30
0.500000
11
2.377930
21
0.816406
31
0.500000
0
LINE
8
0
62
0
10
2.377930
20
0.816406
30
0.500000
11
2.378906
21
0.800781
31
0.500000
0
LINE
8
0
62
0
10
2.378906
20
0.800781
30
0.500000
11
2.378906
21
0.783203
31
0.500000
0
LINE
8
0
62
0
10
2.378906
20
0.783203
30
0.500000
11
2.378906
21
0.298828
31
0.500000
0
LINE
8
0
62
0
10
2.378906
20
0.298828
30
0.500000
11
2.378906
21
0.276367
31
0.500000
0
LINE
8
0
62
0
10
2.378906
20
0.276367
30
0.500000
11
2.378906
21
0.256836
31
0.500000
0
LINE
8
0
62
0
10
2.378906
20
0.256836
30
0.500000
11
2.377930
21
0.238281
31
0.500000
0
LINE
8
0
62
0
10
2.377930
20
0.238281
30
0.500000
11
2.376953
21
0.222656
31
0.500000
0
LINE
8
0
62
0
10
2.376953
20
0.222656
30
0.500000
11
2.375977
21
0.208984
31
0.500000
0
LINE
8
0
62
0
10
2.375977
20
0.208984
30
0.500000
11
2.375000
21
0.197266
31
0.500000
0
LINE
8
0
62
0
10
2.375000
20
0.197266
30
0.500000
11
2.373047
21
0.188477
31
0.500000
0
LINE
8
0
62
0
10
2.373047
20
0.188477
30
0.500000
11
2.371094
21
0.180664
31
0.500000
0
LINE
8
0
62
0
10
2.371094
20
0.180664
30
0.500000
11
2.369141
21
0.174805
31
0.500000
0
LINE
8
0
62
0
10
2.369141
20
0.174805
30
0.500000
11
2.366211
21
0.169922
31
0.500000
0
LINE
8
0
62
0
10
2.366211
20
0.169922
30
0.500000
11
2.362305
21
0.166016
31
0.500000
0
LINE
8
0
62
0
10
2.362305
20
0.166016
30
0.500000
11
2.358398
21
0.162109
31
0.500000
0
LINE
8
0
62
0
10
2.358398
20
0.162109
30
0.500000
11
2.353516
21
0.160156
31
0.500000
0
LINE
8
0
62
0
10
2.353516
20
0.160156
30
0.500000
11
2.348633
21
0.158203
31
0.500000
0
LINE
8
0
62
0
10
2.348633
20
0.158203
30
0.500000
11
2.342773
21
0.156250
31
0.500000
0
LINE
8
0
62
0
10
2.342773
20
0.156250
30
0.500000
11
2.335938
21
0.156250
31
0.500000
0
LINE
8
0
62
0
10
2.335938
20
0.156250
30
0.500000
11
2.329102
21
0.156250
31
0.500000
0
LINE
8
0
62
0
10
2.329102
20
0.156250
30
0.500000
11
2.323242
21
0.157227
31
0.500000
0
LINE
8
0
62
0
10
2.323242
20
0.157227
30
0.500000
11
2.318359
21
0.159180
31
0.500000
0
LINE
8
0
62
0
10
2.318359
20
0.159180
30
0.500000
11
2.313477
21
0.161133
31
0.500000
0
LINE
8
0
62
0
10
2.313477
20
0.161133
30
0.500000
11
2.309570
21
0.165039
31
0.500000
0
LINE
8
0
62
0
10
2.309570
20
0.165039
30
0.500000
11
2.306641
21
0.167969
31
0.500000
0
LINE
8
0
62
0
10
2.306641
20
0.167969
30
0.500000
11
2.303711
21
0.172852
31
0.500000
0
LINE
8
0
62
0
10
2.303711
20
0.172852
30
0.500000
11
2.301758
21
0.177734
31
0.500000
0
LINE
8
0
62
0
10
2.301758
20
0.177734
30
0.500000
11
2.299805
21
0.184570
31
0.500000
0
LINE
8
0
62
0
10
2.299805
20
0.184570
30
0.500000
11
2.297852
21
0.192383
31
0.500000
0
LINE
8
0
62
0
10
2.297852
20
0.192383
30
0.500000
11
2.296875
21
0.204102
31
0.500000
0
LINE
8
0
62
0
10
2.296875
20
0.204102
30
0.500000
11
2.295898
21
0.216797
31
0.500000
0
LINE
8
0
62
0
10
2.295898
20
0.216797
30
0.500000
11
2.294922
21
0.232422
31
0.500000
0
LINE
8
0
62
0
10
2.294922
20
0.232422
30
0.500000
11
2.293945
21
0.249023
31
0.500000
0
LINE
8
0
62
0
10
2.293945
20
0.249023
30
0.500000
11
2.293945
21
0.269531
31
0.500000
0
LINE
8
0
62
0
10
2.293945
20
0.269531
30
0.500000
11
2.293945
21
0.291016
31
0.500000
0
LINE
8
0
62
0
10
2.293945
20
0.291016
30
0.500000
11
2.293945
21
0.783203
31
0.500000
0
LINE
8
0
62
0
10
2.293945
20
0.783203
30
0.500000
11
2.293945
21
0.802734
31
0.500000
0
LINE
8
0
62
0
10
2.293945
20
0.802734
30
0.500000
11
2.294922
21
0.819336
31
0.500000
0
LINE
8
0
62
0
10
2.755859
20
0.000000
30
0.500000
11
2.755859
21
1.053711
31
0.500000
0
LINE
8
0
62
0
10
2.755859
20
1.053711
30
0.500000
11
3.030273
21
1.053711
31
0.500000
0
LINE
8
0
62
0
10
3.030273
20
1.053711
30
0.500000
11
3.030273
21
0.000000
31
0.500000
0
LINE
8
0
62
0
10
3.030273
20
0.000000
30
0.500000
11
2.755859
21
0.000000
31
0.500000
0
LINE
8
0
62
0
10
3.133789
20
0.301758
30
0.500000
11
3.131836
21
0.336914
31
0.500000
0
LINE
8
0
62
0
10
3.131836
20
0.336914
30
0.500000
11
3.131836
21
0.374023
31
0.500000
0
LINE
8
0
62
0
10
3.131836
20
0.374023
30
0.500000
11
3.131836
21
0.682617
31
0.500000
0
LINE
8
0
62
0
10
3.131836
20
0.682617
30
0.500000
11
3.131836
21
0.709961
31
0.500000
0
LINE
8
0
62
0
10
3.131836
20
0.709961
30
0.500000
11
3.131836
21
0.735352
31
0.500000
0
LINE
8
0
62
0
10
3.131836
20
0.735352
30
0.500000
11
3.132813
21
0.759766
31
0.500000
0
LINE
8
0
62
0
10
3.132813
20
0.759766
30
0.500000
11
3.133789
21
0.782227
31
0.500000
0
LINE
8
0
62
0
10
3.133789
20
0.782227
30
0.500000
11
3.134766
21
0.802734
31
0.500000
0
LINE
8
0
62
0
10
3.134766
20
0.802734
30
0.500000
11
3.135742
21
0.821289
31
0.500000
0
LINE
8
0
62
0
10
3.135742
20
0.821289
30
0.500000
11
3.137695
21
0.837891
31
0.500000
0
LINE
8
0
62
0
10
3.137695
20
0.837891
30
0.500000
11
3.139648
21
0.853516
31
0.500000
0
LINE
8
0
62
0
10
3.139648
20
0.853516
30
0.500000
11
3.141602
21
0.867188
31
0.500000
0
LINE
8
0
62
0
10
3.141602
20
0.867188
30
0.500000
11
3.145508
21
0.881836
31
0.500000
0
LINE
8
0
62
0
10
3.145508
20
0.881836
30
0.500000
11
3.149414
21
0.895508
31
0.500000
0
LINE
8
0
62
0
10
3.149414
20
0.895508
30
0.500000
11
3.155273
21
0.909180
31
0.500000
0
LINE
8
0
62
0
10
3.155273
20
0.909180
30
0.500000
11
3.161133
21
0.922852
31
0.500000
0
LINE
8
0
62
0
10
3.161133
20
0.922852
30
0.500000
11
3.168945
21
0.936523
31
0.500000
0
LINE
8
0
62
0
10
3.168945
20
0.936523
30
0.500000
11
3.176758
21
0.949219
31
0.500000
0
LINE
8
0
62
0
10
3.176758
20
0.949219
30
0.500000
11
3.186523
21
0.962891
31
0.500000
0
LINE
8
0
62
0
10
3.186523
20
0.962891
30
0.500000
11
3.196289
21
0.975586
31
0.500000
0
LINE
8
0
62
0
10
3.196289
20
0.975586
30
0.500000
11
3.207031
21
0.988281
31
0.500000
0
LINE
8
0
62
0
10
3.207031
20
0.988281
30
0.500000
11
3.219727
21
0.999023
31
0.500000
0
LINE
8
0
62
0
10
3.219727
20
0.999023
30
0.500000
11
3.232422
21
1.009766
31
0.500000
0
LINE
8
0
62
0
10
3.232422
20
1.009766
30
0.500000
11
3.246094
21
1.020508
31
0.500000
0
LINE
8
0
62
0
10
3.246094
20
1.020508
30
0.500000
11
3.260742
21
1.029297
31
0.500000
0
LINE
8
0
62
0
10
3.260742
20
1.029297
30
0.500000
11
3.276367
21
1.038086
31
0.500000
0
LINE
8
0
62
0
10
3.276367
20
1.038086
30
0.500000
11
3.293945
21
1.045898
31
0.500000
0
LINE
8
0
62
0
10
3.293945
20
1.045898
30
0.500000
11
3.310547
21
1.052734
31
0.500000
0
LINE
8
0
62
0
10
3.310547
20
1.052734
30
0.500000
11
3.329102
21
1.059570
31
0.500000
0
LINE
8
0
62
0
10
3.329102
20
1.059570
30
0.500000
11
3.347656
21
1.064453
31
0.500000
0
LINE
8
0
62
0
10
3.347656
20
1.064453
30
0.500000
11
3.367188
21
1.068359
31
0.500000
0
LINE
8
0
62
0
10
3.367188
20
1.068359
30
0.500000
11
3.387695
21
1.072266
31
0.500000
0
LINE
8
0
62
0
10
3.387695
20
1.072266
30
0.500000
11
3.408203
21
1.074219
31
0.500000
0
LINE
8
0
62
0
10
3.408203
20
1.074219
30
0.500000
11
3.429688
21
1.076172
31
0.500000
0
LINE
8
0
62
0
10
3.429688
20
1.076172
30
0.500000
11
3.451172
21
1.076172
31
0.500000
0
LINE
8
0
62
0
10
3.451172
20
1.076172
30
0.500000
11
3.480469
21
1.075195
31
0.500000
0
LINE
8
0
62
0
10
3.480469
20
1.075195
30
0.500000
11
3.508789
21
1.073242
31
0.500000
0
LINE
8
0
62
0
10
3.508789
20
1.073242
30
0.500000
11
3.536133
21
1.069336
31
0.500000
0
LINE
8
0
62
0
10
3.536133
20
1.069336
30
0.500000
11
3.561523
21
1.064453
31
0.500000
0
LINE
8
0
62
0
10
3.561523
20
1.064453
30
0.500000
11
3.585938
21
1.057617
31
0.500000
0
LINE
8
0
62
0
10
3.585938
20
1.057617
30
0.500000
11
3.609375
21
1.049805
31
0.500000
0
LINE
8
0
62
0
10
3.609375
20
1.049805
30
0.500000
11
3.630859
21
1.040039
31
0.500000
0
LINE
8
0
62
0
10
3.630859
20
1.040039
30
0.500000
11
3.651367
21
1.029297
31
0.500000
0
LINE
8
0
62
0
10
3.651367
20
1.029297
30
0.500000
11
3.669922
21
1.017578
31
0.500000
0
LINE
8
0
62
0
10
3.669922
20
1.017578
30
0.500000
11
3.687500
21
1.004883
31
0.500000
0
LINE
8
0
62
0
10
3.687500
20
1.004883
30
0.500000
11
3.702148
21
0.991211
31
0.500000
0
LINE
8
0
62
0
10
3.702148
20
0.991211
30
0.500000
11
3.716797
21
0.976563
31
0.500000
0
LINE
8
0
62
0
10
3.716797
20
0.976563
30
0.500000
11
3.728516
21
0.961914
31
0.500000
0
LINE
8
0
62
0
10
3.728516
20
0.961914
30
0.500000
11
3.739258
21
0.946289
31
0.500000
0
LINE
8
0
62
0
10
3.739258
20
0.946289
30
0.500000
11
3.747070
21
0.929688
31
0.500000
0
LINE
8
0
62
0
10
3.747070
20
0.929688
30
0.500000
11
3.754883
21
0.912109
31
0.500000
0
LINE
8
0
62
0
10
3.754883
20
0.912109
30
0.500000
11
3.760742
21
0.893555
31
0.500000
0
LINE
8
0
62
0
10
3.760742
20
0.893555
30
0.500000
11
3.765625
21
0.873047
31
0.500000
0
LINE
8
0
62
0
10
3.765625
20
0.873047
30
0.500000
11
3.769531
21
0.849609
31
0.500000
0
LINE
8
0
62
0
10
3.769531
20
0.849609
30
0.500000
11
3.773438
21
0.823242
31
0.500000
0
LINE
8
0
62
0
10
3.773438
20
0.823242
30
0.500000
11
3.775391
21
0.794922
31
0.500000
0
LINE
8
0
62
0
10
3.775391
20
0.794922
30
0.500000
11
3.777344
21
0.763672
31
0.500000
0
LINE
8
0
62
0
10
3.777344
20
0.763672
30
0.500000
11
3.779297
21
0.730469
31
0.500000
0
LINE
8
0
62
0
10
3.779297
20
0.730469
30
0.500000
11
3.779297
21
0.695313
31
0.500000
0
LINE
8
0
62
0
10
3.779297
20
0.695313
30
0.500000
11
3.779297
21
0.594727
31
0.500000
0
LINE
8
0
62
0
10
3.779297
20
0.594727
30
0.500000
11
3.504883
21
0.594727
31
0.500000
0
LINE
8
0
62
0
10
3.504883
20
0.594727
30
0.500000
11
3.504883
21
0.778320
31
0.500000
0
LINE
8
0
62
0
10
3.504883
20
0.778320
30
0.500000
11
3.504883
21
0.796875
31
0.500000
0
LINE
8
0
62
0
10
3.504883
20
0.796875
30
0.500000
11
3.503906
21
0.814453
31
0.500000
0
LINE
8
0
62
0
10
3.503906
20
0.814453
30
0.500000
11
3.503906
21
0.829102
31
0.500000
0
LINE
8
0
62
0
10
3.503906
20
0.829102
30
0.500000
11
3.502930
21
0.842773
31
0.500000
0
LINE
8
0
62
0
10
3.502930
20
0.842773
30
0.500000
11
3.501953
21
0.854492
31
0.500000
0
LINE
8
0
62
0
10
3.501953
20
0.854492
30
0.500000
11
3.500000
21
0.864258
31
0.500000
0
LINE
8
0
62
0
10
3.500000
20
0.864258
30
0.500000
11
3.498047
21
0.872070
31
0.500000
0
LINE
8
0
62
0
10
3.498047
20
0.872070
30
0.500000
11
3.496094
21
0.877930
31
0.500000
0
LINE
8
0
62
0
10
3.496094
20
0.877930
30
0.500000
11
3.494141
21
0.881836
31
0.500000
0
LINE
8
0
62
0
10
3.494141
20
0.881836
30
0.500000
11
3.490234
21
0.886719
31
0.500000
0
LINE
8
0
62
0
10
3.490234
20
0.886719
30
0.500000
11
3.486328
21
0.889648
31
0.500000
0
LINE
8
0
62
0
10
3.486328
20
0.889648
30
0.500000
11
3.482422
21
0.892578
31
0.500000
0
LINE
8
0
62
0
10
3.482422
20
0.892578
30
0.500000
11
3.477539
21
0.894531
31
0.500000
0
LINE
8
0
62
0
10
3.477539
20
0.894531
30
0.500000
11
3.471680
21
0.896484
31
0.500000
0
LINE
8
0
62
0
10
3.471680
20
0.896484
30
0.500000
11
3.464844
21
0.897461
31
0.500000
0
LINE
8
0
62
0
10
3.464844
20
0.897461
30
0.500000
11
3.458008
21
0.897461
31
0.500000
0
LINE
8
0
62
0
10
3.458008
20
0.897461
30
0.500000
11
3.450195
21
0.897461
31
0.500000
0
LINE
8
0
62
0
10
3.450195
20
0.897461
30
0.500000
11
3.442383
21
0.895508
31
0.500000
0
LINE
8
0
62
0
10
3.442383
20
0.895508
30
0.500000
11
3.436523
21
0.894531
31
0.500000
0
LINE
8
0
62
0
10
3.436523
20
0.894531
30
0.500000
11
3.430664
21
0.891602
31
0.500000
0
LINE
8
0
62
0
10
3.430664
20
0.891602
30
0.500000
11
3.425781
21
0.887695
31
0.500000
0
LINE
8
0
62
0
10
3.425781
20
0.887695
30
0.500000
11
3.420898
21
0.883789
31
0.500000
0
LINE
8
0
62
0
10
3.420898
20
0.883789
30
0.500000
11
3.417969
21
0.878906
31
0.500000
0
LINE
8
0
62
0
10
3.417969
20
0.878906
30
0.500000
11
3.415039
21
0.873047
31
0.500000
0
LINE
8
0
62
0
10
3.415039
20
0.873047
30
0.500000
11
3.413086
21
0.866211
31
0.500000
0
LINE
8
0
62
0
10
3.413086
20
0.866211
30
0.500000
11
3.411133
21
0.857422
31
0.500000
0
LINE
8
0
62
0
10
3.411133
20
0.857422
30
0.500000
11
3.410156
21
0.847656
31
0.500000
0
LINE
8
0
62
0
10
3.410156
20
0.847656
30
0.500000
11
3.408203
21
0.834961
31
0.500000
0
LINE
8
0
62
0
10
3.408203
20
0.834961
30
0.500000
11
3.407227
21
0.821289
31
0.500000
0
LINE
8
0
62
0
10
3.407227
20
0.821289
30
0.500000
11
3.407227
21
0.805664
31
0.500000
0
LINE
8
0
62
0
10
3.407227
20
0.805664
30
0.500000
11
3.406250
21
0.788086
31
0.500000
0
LINE
8
0
62
0
10
3.406250
20
0.788086
30
0.500000
11
3.406250
21
0.769531
31
0.500000
0
LINE
8
0
62
0
10
3.406250
20
0.769531
30
0.500000
11
3.406250
21
0.280273
31
0.500000
0
LINE
8
0
62
0
10
3.406250
20
0.280273
30
0.500000
11
3.406250
21
0.261719
31
0.500000
0
LINE
8
0
62
0
10
3.406250
20
0.261719
30
0.500000
11
3.407227
21
0.245117
31
0.500000
0
LINE
8
0
62
0
10
3.407227
20
0.245117
30
0.500000
11
3.407227
21
0.229492
31
0.500000
0
LINE
8
0
62
0
10
3.407227
20
0.229492
30
0.500000
11
3.408203
21
0.216797
31
0.500000
0
LINE
8
0
62
0
10
3.408203
20
0.216797
30
0.500000
11
3.410156
21
0.205078
31
0.500000
0
LINE
8
0
62
0
10
3.410156
20
0.205078
30
0.500000
11
3.411133
21
0.194336
31
0.500000
0
LINE
8
0
62
0
10
3.411133
20
0.194336
30
0.500000
11
3.413086
21
0.186523
31
0.500000
0
LINE
8
0
62
0
10
3.413086
20
0.186523
30
0.500000
11
3.415039
21
0.179688
31
0.500000
0
LINE
8
0
62
0
10
3.415039
20
0.179688
30
0.500000
11
3.417969
21
0.173828
31
0.500000
0
LINE
8
0
62
0
10
3.417969
20
0.173828
30
0.500000
11
3.420898
21
0.168945
31
0.500000
0
LINE
8
0
62
0
10
3.420898
20
0.168945
30
0.500000
11
3.424805
21
0.165039
31
0.500000
0
LINE
8
0
62
0
10
3.424805
20
0.165039
30
0.500000
11
3.429688
21
0.162109
31
0.500000
0
LINE
8
0
62
0
10
3.429688
20
0.162109
30
0.500000
11
3.435547
21
0.159180
31
0.500000
0
LINE
8
0
62
0
10
3.435547
20
0.159180
30
0.500000
11
3.441406
21
0.157227
31
0.500000
0
LINE
8
0
62
0
10
3.441406
20
0.157227
30
0.500000
11
3.448242
21
0.156250
31
0.500000
0
LINE
8
0
62
0
10
3.448242
20
0.156250
30
0.500000
11
3.456055
21
0.156250
31
0.500000
0
LINE
8
0
62
0
10
3.456055
20
0.156250
30
0.500000
11
3.462891
21
0.156250
31
0.500000
0
LINE
8
0
62
0
10
3.462891
20
0.156250
30
0.500000
11
3.469727
21
0.158203
31
0.500000
0
LINE
8
0
62
0
10
3.469727
20
0.158203
30
0.500000
11
3.475586
21
0.159180
31
0.500000
0
LINE
8
0
62
0
10
3.475586
20
0.159180
30
0.500000
11
3.480469
21
0.162109
31
0.500000
0
LINE
8
0
62
0
10
3.480469
20
0.162109
30
0.500000
11
3.485352
21
0.165039
31
0.500000
0
LINE
8
0
62
0
10
3.485352
20
0.165039
30
0.500000
11
3.489258
21
0.169922
31
0.500000
0
LINE
8
0
62
0
10
3.489258
20
0.169922
30
0.500000
11
3.493164
21
0.173828
31
0.500000
0
LINE
8
0
62
0
10
3.493164
20
0.173828
30
0.500000
11
3.495117
21
0.179688
31
0.500000
0
LINE
8
0
62
0
10
3.495117
20
0.179688
30
0.500000
11
3.498047
21
0.186523
31
0.500000
0
LINE
8
0
62
0
10
3.498047
20
0.186523
30
0.500000
11
3.500000
21
0.195313
31
0.500000
0
LINE
8
0
62
0
10
3.500000
20
0.195313
30
0.500000
11
3.500977
21
0.206055
31
0.500000
0
LINE
8
0
62
0
10
3.500977
20
0.206055
30
0.500000
11
3.502930
21
0.218750
31
0.500000
0
LINE
8
0
62
0
10
3.502930
20
0.218750
30
0.500000
11
3.503906
21
0.234375
31
0.500000
0
LINE
8
0
62
0
10
3.503906
20
0.234375
30
0.500000
11
3.503906
21
0.250977
31
0.500000
0
LINE
8
0
62
0
10
3.503906
20
0.250977
30
0.500000
11
3.504883
21
0.269531
31
0.500000
0
LINE
8
0
62
0
10
3.504883
20
0.269531
30
0.500000
11
3.504883
21
0.290039
31
0.500000
0
LINE
8
0
62
0
10
3.504883
20
0.290039
30
0.500000
11
3.504883
21
0.422852
31
0.500000
0
LINE
8
0
62
0
10
3.504883
20
0.422852
30
0.500000
11
3.779297
21
0.422852
31
0.500000
0
LINE
8
0
62
0
10
3.779297
20
0.422852
30
0.500000
11
3.779297
21
0.381836
31
0.500000
0
LINE
8
0
62
0
10
3.779297
20
0.381836
30
0.500000
11
3.779297
21
0.341797
31
0.500000
0
LINE
8
0
62
0
10
3.779297
20
0.341797
30
0.500000
11
3.778320
21
0.305664
31
0.500000
0
LINE
8
0
62
0
10
3.778320
20
0.305664
30
0.500000
11
3.776367
21
0.272461
31
0.500000
0
LINE
8
0
62
0
10
3.776367
20
0.272461
30
0.500000
11
3.773438
21
0.241211
31
0.500000
0
LINE
8
0
62
0
10
3.773438
20
0.241211
30
0.500000
11
3.770508
21
0.213867
31
0.500000
0
LINE
8
0
62
0
10
3.770508
20
0.213867
30
0.500000
11
3.766602
21
0.189453
31
0.500000
0
LINE
8
0
62
0
10
3.766602
20
0.189453
30
0.500000
11
3.761719
21
0.167969
31
0.500000
0
LINE
8
0
62
0
10
3.761719
20
0.167969
30
0.500000
11
3.755859
21
0.149414
31
0.500000
0
LINE
8
0
62
0
10
3.755859
20
0.149414
30
0.500000
11
3.750000
21
0.132813
31
0.500000
0
LINE
8
0
62
0
10
3.750000
20
0.132813
30
0.500000
11
3.741211
21
0.116211
31
0.500000
0
LINE
8
0
62
0
10
3.741211
20
0.116211
30
0.500000
11
3.731445
21
0.100586
31
0.500000
0
LINE
8
0
62
0
10
3.731445
20
0.100586
30
0.500000
11
3.718750
21
0.084961
31
0.500000
0
LINE
8
0
62
0
10
3.718750
20
0.084961
30
0.500000
11
3.705078
21
0.070313
31
0.500000
0
LINE
8
0
62
0
10
3.705078
20
0.070313
30
0.500000
11
3.690430
21
0.055664
31
0.500000
0
LINE
8
0
62
0
10
3.690430
20
0.055664
30
0.500000
11
3.672852
21
0.041992
31
0.500000
0
LINE
8
0
62
0
10
3.672852
20
0.041992
30
0.500000
11
3.654297
21
0.029297
31
0.500000
0
LINE
8
0
62
0
10
3.654297
20
0.029297
30
0.500000
11
3.633789
21
0.016602
31
0.500000
0
LINE
8
0
62
0
10
3.633789
20
0.016602
30
0.500000
11
3.612305
21
0.006836
31
0.500000
0
LINE
8
0
62
0
10
3.612305
20
0.006836
30
0.500000
11
3.589844
21
-0.001953
31
0.500000
0
LINE
8
0
62
0
10
3.589844
20
-0.001953
30
0.500000
11
3.565430
21
-0.009766
31
0.500000
0
LINE
8
0
62
0
10
3.565430
20
-0.009766
30
0.500000
11
3.541016
21
-0.015625
31
0.500000
0
LINE
8
0
62
0
10
3.541016
20
-0.015625
30
0.500000
11
3.514648
21
-0.019531
31
0.500000
0
LINE
8
0
62
0
10
3.514648
20
-0.019531
30
0.500000
11
3.487305
21
-0.021484
31
0.500000
0
LINE
8
0
62
0
10
3.487305
20
-0.021484
30
0.500000
11
3.458984
21
-0.022461
31
0.500000
0
LINE
8
0
62
0
10
3.458984
20
-0.022461
30
0.500000
11
3.429688
21
-0.021484
31
0.500000
0
LINE
8
0
62
0
10
3.429688
20
-0.021484
30
0.500000
11
3.401367
21
-0.019531
31
0.500000
0
LINE
8
0
62
0
10
3.401367
20
-0.019531
30
0.500000
11
3.375000
21
-0.016602
31
0.500000
0
LINE
8
0
62
0
10
3.375000
20
-0.016602
30
0.500000
11
3.349609
21
-0.011719
31
0.500000
0
LINE
8
0
62
0
10
3.349609
20
-0.011719
30
0.500000
11
3.325195
21
-0.005859
31
0.500000
0
LINE
8
0
62
0
10
3.325195
20
-0.005859
30
0.500000
11
3.302734
21
0.001953
31
0.500000
0
LINE
8
0
62
0
10
3.302734
20
0.001953
30
0.500000
11
3.281250
21
0.010742
31
0.500000
0
LINE
8
0
62
0
10
3.281250
20
0.010742
30
0.500000
11
3.260742
21
0.021484
31
0.500000
0
LINE
8
0
62
0
10
3.260742
20
0.021484
30
0.500000
11
3.242188
21
0.032227
31
0.500000
0
LINE
8
0
62
0
10
3.242188
20
0.032227
30
0.500000
11
3.224609
21
0.044922
31
0.500000
0
LINE
8
0
62
0
10
3.224609
20
0.044922
30
0.500000
11
3.209961
21
0.058594
31
0.500000
0
LINE
8
0
62
0
10
3.209961
20
0.058594
30
0.500000
11
3.195313
21
0.073242
31
0.500000
0
LINE
8
0
62
0
10
3.195313
20
0.073242
30
0.500000
11
3.183594
21
0.088867
31
0.500000
0
LINE
8
0
62
0
10
3.183594
20
0.088867
30
0.500000
11
3.172852
21
0.105469
31
0.500000
0
LINE
8
0
62
0
10
3.172852
20
0.105469
30
0.500000
11
3.164063
21
0.123047
31
0.500000
0
LINE
8
0
62
0
10
3.164063
20
0.123047
30
0.500000
11
3.157227
21
0.141602
31
0.500000
0
LINE
8
0
62
0
10
3.157227
20
0.141602
30
0.500000
11
3.151367
21
0.162109
31
0.500000
0
LINE
8
0
62
0
10
3.151367
20
0.162109
30
0.500000
11
3.146484
21
0.185547
31
0.500000
0
LINE
8
0
62
0
10
3.146484
20
0.185547
30
0.500000
11
3.141602
21
0.210938
31
0.500000
0
LINE
8
0
62
0
10
3.141602
20
0.210938
30
0.500000
11
3.137695
21
0.238281
31
0.500000
0
LINE
8
0
62
0
10
3.137695
20
0.238281
30
0.500000
11
3.135742
21
0.268555
31
0.500000
0
LINE
8
0
62
0
10
3.135742
20
0.268555
30
0.500000
11
3.133789
21
0.301758
31
0.500000
0
ENDSEC
0
EOF
